<svg width="514" height="188" fill="none" xmlns="http://www.w3.org/2000/svg"><g clip-path="url(#a)"><path d="M354.898 158.824c-4.781-3.997-7.232-7.698-7.676-8.4l16.814-10.621s-.023-.039-.072-.111c.014.021 1.413 2.082 4.215 4.303 3.575 2.836 7.729 4.646 12.349 5.383 5.881.937 11.948-1.025 16.003-2.835 4.518-2.016 7.549-4.276 7.577-4.299l14.909 2.88-2.803 12.898c-5.825 4.469-15.085 8.887-23.667 10.591-14.239 2.826-27.834-1.578-37.649-9.789Z" fill="#92B5F9"/><path d="M370.951 99.193H176.787v20.326h194.164V99.193Z" fill="#F47257"/><path d="M319.305 171.129c-43.785-23.151-91.342-37.4-140.168-41.998l5.427-63.558c56.454 5.316 111.44 21.792 162.065 48.561l-27.324 56.995Z" fill="#4951EC"/><path d="M183.442 117.509c1.234-13.212 2.466-26.425 3.699-39.638 5.131.527 9.727-2.785 10.287-7.531 47.064 5.91 92.933 19.655 135.883 40.715-1.911 4.342.33 9.701 4.953 12.099l-16.774 35.72c-4.254-2.206-9.289-.382-11.198 3.956-37.715-18.494-77.996-30.562-119.325-35.753.557-4.745-2.803-9.084-7.525-9.568Z" fill="#7C9AF2"/><path d="M284.478 119.69c-3.946 11.365-16.117 17.155-27.406 13.686-11.283-3.498-18.532-15.282-15.994-27.082 2.529-11.78 15.052-18.839 27.748-14.914 12.697 3.913 19.595 16.966 15.652 28.31Z" fill="#50BFA5"/><path d="m256.978 129.375.945-3.807a20.642 20.642 0 0 1-4.602-2.154c-1.076-.688-1.466-2.08-.885-3.188.023-.045.048-.089.071-.135.639-1.221 2.216-1.613 3.403-.83 1.211.797 2.634 1.509 4.219 1.952 2.306.645 4.109.228 4.526-1.369.394-1.516-.656-2.863-3.446-4.713-4.033-2.665-6.608-5.444-5.719-9.353.802-3.541 4.072-5.658 8.831-5.243l.933-3.81c1.4.387 2.798.782 4.195 1.185-.298 1.174-.599 2.347-.897 3.519 1.525.509 2.741 1.078 3.725 1.659 1.207.713 1.631 2.197.972 3.316-.682 1.157-2.248 1.49-3.464.733a13.896 13.896 0 0 0-3.556-1.567c-2.732-.776-3.891.111-4.165 1.233-.325 1.326.94 2.559 4.134 4.853 4.496 3.112 5.84 5.928 4.854 9.499-.984 3.542-4.34 5.765-9.136 5.238-.352 1.359-.702 2.718-1.055 4.076a411.68 411.68 0 0 0-3.883-1.094Z" fill="#3C8F7C"/><path d="M234.392 105.852a402.19 402.19 0 0 0-33.774-6.286l.788-6.11a407.253 407.253 0 0 1 34.246 6.372c-.419 2.009-.839 4.017-1.26 6.024ZM321.41 136.751a408.503 408.503 0 0 0-31.673-13.862l2.036-5.785a414.5 414.5 0 0 1 32.116 14.057l-2.479 5.59Z" fill="#50BFA5"/><path d="M339.765 98.412c-45.175 9.437-88.193 28.352-126.787 55.745l-31.284-53.981c44.623-31.673 94.361-53.54 146.594-64.454 3.826 20.896 7.65 41.794 11.477 62.69Z" fill="#4951EC"/><path d="M209.704 142.182c-6.426-11.288-12.854-22.577-19.279-33.866 4.078-2.845 5.634-8.4 3.41-12.53 38.025-25.23 79.514-43.47 122.911-54.04 1 4.665 5.63 7.501 10.374 6.468l7.451 39.065c-4.366.952-7.069 5.604-6.069 10.266-38.109 9.281-74.543 25.3-107.933 47.456-2.222-4.125-7.112-5.436-10.865-2.819Z" fill="#7C9AF2"/><path d="M285.494 79.663c3.398 11.546-2.372 23.888-12.631 28.308-10.269 4.394-22.163-.364-26.843-11.36-4.672-10.974.651-24.549 12.202-29.5 11.545-4.965 23.884 1.026 27.272 12.552Z" fill="#4951EC"/><path d="m270.573 104.852-1.416-3.628c-1.562.642-3.182 1.048-4.593 1.214-1.175.138-2.237-.721-2.424-1.972a6.734 6.734 0 0 0-.023-.15c-.207-1.379.738-2.692 2.051-2.826a13.156 13.156 0 0 0 4.198-1.13c2.06-.954 3.159-2.431 2.582-3.967-.552-1.454-2.073-1.857-5.161-1.555-4.457.447-7.901-.126-9.416-3.8-1.373-3.326-.136-7.088 3.609-9.785l-1.426-3.623a381.993 381.993 0 0 1 3.755-1.725l1.292 3.369c1.409-.566 2.621-.886 3.672-1.05 1.285-.202 2.423.709 2.558 2.018.138 1.354-.833 2.614-2.149 2.785-.988.13-2.165.409-3.494 1.016-2.448 1.12-2.812 2.565-2.389 3.629.496 1.261 2.115 1.436 5.745 1.23 5.045-.386 7.603.996 8.857 4.466 1.239 3.442-.003 7.342-3.835 9.974l1.485 3.911a295.087 295.087 0 0 0-3.478 1.599Z" fill="#92B5F9"/><path d="M240.841 100.514a373.57 373.57 0 0 0-28.421 16.479l-2.812-5.358a378.116 378.116 0 0 1 28.819-16.711l2.414 5.59Z" fill="#50BFA5"/><path d="M322.23 69.742a356.995 356.995 0 0 0-31.077 9.121l-1.709-5.892a362.413 362.413 0 0 1 31.512-9.248c.426 2.006.85 4.012 1.274 6.02Z" fill="#4951EC"/><path d="M346.973 137.902c-46.98-2.847-94.03 4.048-138.671 20.323l-18.437-60.539c51.614-18.818 106.013-26.792 160.334-23.5l-3.226 63.716Z" fill="#4951EC"/><path d="m207.844 145.768-11.223-37.888c4.706-1.672 7.542-6.637 6.3-11.22 43.57-14.333 88.949-20.983 134.431-19.704-.095 4.78 3.835 8.755 8.778 9.011-.571 13.262-1.141 26.523-1.714 39.785-4.549-.235-8.313 3.548-8.407 8.325-39.94-1.124-79.79 4.715-118.051 17.302-1.24-4.581-5.782-7.149-10.114-5.611Z" fill="#7C9AF2"/><path d="M297.541 105.365c.679 12.075-7.915 22.49-19.116 24.047-11.203 1.528-21.886-6.232-23.964-18.115-2.077-11.86 6.364-23.585 18.968-25.316 12.602-1.74 23.437 7.331 24.112 19.384Z" fill="#4951EC"/><path d="m276.88 125.783-.558-3.886c-1.699.207-3.4.17-4.835-.044-1.197-.178-2.05-1.29-1.944-2.552.003-.051.008-.101.012-.152.117-1.389 1.359-2.409 2.692-2.189 1.355.222 2.868.279 4.425.019 2.264-.376 3.699-1.515 3.483-3.155-.207-1.555-1.622-2.348-4.754-2.873-4.522-.749-7.802-2.218-8.449-6.173-.587-3.582 1.514-6.896 5.857-8.513l-.57-3.884c1.374-.232 2.749-.456 4.125-.674.166 1.202.331 2.402.495 3.604 1.529-.174 2.805-.163 3.884-.043a2.33 2.33 0 0 1 2.066 2.632 2.483 2.483 0 0 1-2.779 2.126 12.44 12.44 0 0 0-3.701.056c-2.688.435-3.384 1.736-3.215 2.879.198 1.352 1.762 1.951 5.41 2.715 5.093.965 7.304 2.981 7.74 6.671.428 3.66-1.714 7.106-6.125 8.635l.562 4.178c-1.274.199-2.548.408-3.821.623Z" fill="#92B5F9"/><path d="M248.419 113.699a373.675 373.675 0 0 0-32.012 8.412l-1.54-5.933a379.723 379.723 0 0 1 32.461-8.53l1.091 6.051ZM336.269 105.506a367.828 367.828 0 0 0-32.931.585l-.322-6.157a373.026 373.026 0 0 1 33.393-.592l-.14 6.164Z" fill="#50BFA5"/><path d="M370.951 99.193H176.787v85.454h194.164V99.193Z" fill="#FA7167"/><path d="M370.951 162.829h-48.044c-2.13 0-3.858 1.808-3.858 4.038 0 2.23 1.727 4.04 3.858 4.04h-6.23c-2.129 0-3.858 1.808-3.858 4.038 0 2.23 1.727 4.038 3.858 4.038h1.08c-2.131 0-3.858 1.808-3.858 4.038 0 .578.117 1.126.325 1.623h56.729v-21.815h-.002ZM360.692 103.4H183.941v6.636h176.751V103.4Z" fill="#E8605D"/><path d="M260.113 183.585h-78.118a7.346 7.346 0 0 1-7.347-7.346v-38.378a7.347 7.347 0 0 1 7.347-7.347h78.118a7.346 7.346 0 0 1 7.346 7.347v38.378a7.346 7.346 0 0 1-7.346 7.346Z" fill="#7C9AF2"/><path d="M203.472 141.068h-22.856v13.288h22.856v-13.288ZM261.585 137.702h-40.53v2.481h40.53v-2.481ZM258.573 166.05h-74.59v3.065h74.59v-3.065ZM258.573 173.266h-74.59v3.065h74.59v-3.065Z" fill="#DDE8FE"/><path d="M268.601 121.01h-82.414v2.202h82.414v-2.202Z" fill="#E8605D"/><path d="M328.748 101.407c7.168-7.168 7.168-18.79 0-25.957-7.168-7.168-18.789-7.168-25.957 0-7.168 7.168-7.168 18.79 0 25.957 7.168 7.168 18.789 7.168 25.957 0Z" fill="#DDE8FE"/><path d="M328.378 79.58c4.887 6.963 3.204 16.568-3.759 21.455-6.963 4.886-16.568 3.204-21.454-3.76-4.887-6.962-3.204-16.567 3.759-21.454 6.963-4.886 16.568-3.204 21.454 3.76Z" fill="#92B5F9"/><path d="m317.55 99.26-.671-2.482c-1.135.252-2.292.339-3.279.288a1.563 1.563 0 0 1-1.482-1.543l-.002-.1a1.564 1.564 0 0 1 1.658-1.583 9.139 9.139 0 0 0 2.965-.277c1.49-.403 2.352-1.253 2.07-2.297-.269-.994-1.275-1.395-3.385-1.524-3.05-.184-5.31-.975-5.996-3.51-.622-2.299.511-4.54 3.158-5.844l-.672-2.481 2.561-.693.622 2.3c.962-.215 1.776-.3 2.478-.301a1.56 1.56 0 0 1 1.562 1.544 1.563 1.563 0 0 1-1.596 1.586 8.361 8.361 0 0 0-2.384.295c-1.698.46-2.048 1.34-1.85 2.071.233.862 1.295 1.163 3.743 1.4 3.406.256 5.049 1.353 5.684 3.706.629 2.325-.481 4.755-3.344 6.091l.721 2.665-2.561.69Z" fill="#fff"/><path d="M346.063 160.149c7.168-7.168 7.168-18.789 0-25.957-7.168-7.168-18.789-7.168-25.957 0-7.168 7.168-7.168 18.789 0 25.957 7.168 7.168 18.789 7.168 25.957 0Z" fill="#DDE8FE"/><path d="M345.694 138.322c4.886 6.963 3.204 16.568-3.759 21.455-6.963 4.886-16.568 3.204-21.455-3.759-4.886-6.963-3.204-16.568 3.759-21.455 6.963-4.886 16.568-3.204 21.455 3.759Z" fill="#92B5F9"/><path d="m334.866 158.002-.672-2.481a12.486 12.486 0 0 1-3.278.288 1.564 1.564 0 0 1-1.483-1.543l-.002-.099a1.561 1.561 0 0 1 1.658-1.581 9.143 9.143 0 0 0 2.966-.278c1.489-.403 2.352-1.253 2.069-2.297-.269-.993-1.274-1.395-3.384-1.524-3.051-.183-5.311-.975-5.997-3.509-.622-2.3.511-4.54 3.158-5.845l-.671-2.481 2.561-.693.622 2.3c.961-.214 1.776-.299 2.477-.301a1.565 1.565 0 1 1-.033 3.13 8.367 8.367 0 0 0-2.384.295c-1.698.46-2.048 1.34-1.85 2.071.233.863 1.295 1.165 3.743 1.4 3.405.256 5.049 1.354 5.683 3.706.629 2.326-.481 4.756-3.344 6.092l.721 2.665-2.56.685Z" fill="#fff"/><path d="M315.746 124.964c.424-10.128-7.442-18.683-17.569-19.108-10.128-.424-18.683 7.442-19.108 17.569-.424 10.128 7.442 18.683 17.569 19.108 10.128.424 18.683-7.442 19.108-17.569Z" fill="#DDE8FE"/><path d="M312.817 124.582c.224-8.504-6.487-15.579-14.991-15.804-8.503-.224-15.579 6.487-15.803 14.991-.225 8.503 6.487 15.579 14.99 15.803 8.504.225 15.579-6.486 15.804-14.99Z" fill="#92B5F9"/><path d="m292.648 134.079.876-2.418a12.514 12.514 0 0 1-2.849-1.647 1.565 1.565 0 0 1-.328-2.115l.056-.081a1.561 1.561 0 0 1 2.266-.343 9.073 9.073 0 0 0 2.587 1.475c1.451.527 2.646.326 3.015-.691.35-.966-.242-1.873-1.894-3.191-2.392-1.904-3.788-3.849-2.892-6.316.811-2.24 3.026-3.424 5.942-2.971l.876-2.418 2.494.905-.811 2.239c.91.377 1.626.776 2.2 1.177.702.49.875 1.456.392 2.163a1.564 1.564 0 0 1-2.218.38 8.267 8.267 0 0 0-2.12-1.127c-1.654-.599-2.446-.082-2.704.631-.304.839.392 1.696 2.26 3.295 2.64 2.167 3.354 4.009 2.524 6.299-.822 2.264-3.125 3.618-6.237 3.064l-.942 2.596-2.493-.906Z" fill="#fff"/><path d="M360.694 134.775h-83.128v44.551h83.128v-44.551Z" fill="#EB242A"/><path d="M319.049 166.869c0 2.23 1.727 4.04 3.858 4.04h-6.23c-2.129 0-3.858 1.807-3.858 4.038 0 2.23 1.727 4.038 3.858 4.038h1.08c-.551 0-1.076.122-1.55.341h44.489V162.83h-37.787c-2.133-.001-3.86 1.808-3.86 4.039Z" fill="#E8605D"/><path d="M370.43 179.854h-49.616a3.605 3.605 0 1 1 0-7.21h49.616a3.605 3.605 0 1 1 0 7.21Z" fill="#C8141A"/><path d="M376.251 172.644h-49.615a3.606 3.606 0 0 1 0-7.21h49.615a3.606 3.606 0 1 1 0 7.21ZM138.517 118.446a1.352 1.352 0 0 1-.233 1.706c-.933.862-2.42 1.871-4.229 2.55-2.648.993-5.587 1.09-8.236-.113-1.656-.751-3.17-2.105-4.238-3.857l-1.564.587a1.026 1.026 0 0 1-1.323-.601l-.016-.04c-.2-.532.069-1.124.601-1.324l1.283-.482c-.207-.426-.352-.693-.442-.934-.15-.401-.292-.897-.407-1.449l-1.323.497a1.03 1.03 0 0 1-.723-1.925l1.605-.602c-.251-2.011.014-3.987.765-5.643 1.277-2.814 3.684-4.816 6.452-5.855 1.614-.606 2.941-.785 4.015-.795a1.387 1.387 0 0 1 1.4 1.322l.002.023a1.391 1.391 0 0 1-1.34 1.451c-.88.035-1.919.21-3.123.662-1.765.663-3.319 1.888-4.211 3.779-.502 1.104-.737 2.428-.47 3.746l9.027-3.388a1.028 1.028 0 0 1 .723 1.925l-9.428 3.538c.125.456.25.914.356 1.193.137.36.271.723.492 1.187l9.448-3.545a1.05 1.05 0 0 1 .738 1.966l-9.046 3.394c.717 1.059 1.656 1.851 2.649 2.301 1.97.863 3.787.822 5.793.069a11.34 11.34 0 0 0 3.013-1.698 1.357 1.357 0 0 1 1.99.355ZM358.13 14.298l4.385 1.446s6.952-2.253 7.636-3.67c.684-1.416.878-4.854 1.866-4.947.99-.094 2.902.228 3.356 2.58.331 1.707-2.17 6.645-1.78 7.17.244.328 2.741 1.231 4.576 1.862a3.415 3.415 0 0 1 2.262 2.757v.004a1.883 1.883 0 0 1-1.175 2.021l-1.262.488.403 1.303a1.88 1.88 0 0 1-1.19 2.332l-.975.327.313.794a1.882 1.882 0 0 1-1.214 2.486l-.852.248.035.228a1.875 1.875 0 0 1-1.368 2.101l-.846.223-11.678-3.855a8.3 8.3 0 0 1-2.96-1.72l-3.878-2.046a.965.965 0 0 1-.452-1.171l3.594-10.353a.963.963 0 0 1 1.204-.608ZM15.891 50.543l50.592 26.05c2.723 1.403 6.165.14 7.687-2.818l12.92-25.092c1.523-2.958.55-6.493-2.17-7.895l-50.593-26.05c-2.722-1.402-6.164-.14-7.687 2.819L13.72 42.648c-1.524 2.958-.55 6.493 2.171 7.895Z" fill="#EB242A"/><path d="m17.932 34.471-3.92 7.613L74.465 73.21l3.92-7.612L17.932 34.47Z" fill="#0B0754"/><path d="M46.654 25.193 33.332 18.32l-3.812 7.39 13.322 6.873 3.812-7.39Z" fill="#fff"/><path d="M69 183.343c0 .719.724 1.302 1.618 1.302h403.395c.894 0 1.618-.583 1.618-1.302 0-.719-.724-1.302-1.618-1.302H70.618c-.894 0-1.618.583-1.618 1.302Z" fill="#4951EC"/><path d="M446.379 27.978c5.823 8.297 3.817 19.743-4.48 25.567-8.297 5.823-19.744 3.817-25.567-4.48-5.823-8.298-3.817-19.744 4.48-25.567s19.744-3.818 25.567 4.48Z" fill="#DDE8FE"/><path d="M443.961 29.674c4.887 6.963 3.204 16.568-3.759 21.455-6.963 4.886-16.568 3.204-21.454-3.76-4.887-6.962-3.204-16.567 3.759-21.454 6.963-4.886 16.568-3.204 21.454 3.76Z" fill="#92B5F9"/><path d="m433.133 49.356-.671-2.483a12.5 12.5 0 0 1-3.281.288 1.563 1.563 0 0 1-1.482-1.543l-.002-.099a1.561 1.561 0 0 1 1.658-1.581 9.139 9.139 0 0 0 2.965-.278c1.49-.403 2.352-1.253 2.07-2.297-.269-.993-1.275-1.394-3.385-1.523-3.05-.184-5.31-.976-5.996-3.51-.622-2.3.511-4.54 3.158-5.845l-.671-2.48 2.56-.694.622 2.3c.962-.214 1.776-.299 2.478-.3a1.56 1.56 0 0 1 1.562 1.544 1.564 1.564 0 0 1-1.596 1.585 8.365 8.365 0 0 0-2.384.295c-1.698.46-2.048 1.34-1.85 2.071.233.863 1.296 1.163 3.743 1.4 3.406.256 5.049 1.354 5.685 3.706.63 2.326-.48 4.756-3.343 6.092l.721 2.665-2.561.687Z" fill="#fff"/><path d="M371.437 187.063h-49.615a3.606 3.606 0 0 1 0-7.21h49.615a3.606 3.606 0 1 1 0 7.21Z" fill="#EB242A"/></g><path d="M81 119.614a4.5 4.5 0 0 0 9 0h-9Zm181.689-71.171a4.5 4.5 0 0 0 3.151-5.53l-10.704-39.06a4.5 4.5 0 1 0-8.68 2.379l9.515 34.72-34.72 9.514a4.5 4.5 0 1 0 2.378 8.68l39.06-10.703ZM90 119.614c0-23.822 16.009-56.805 45.304-76.287 28.878-19.204 71.039-25.475 123.968 4.685l4.456-7.82c-55.571-31.665-101.41-25.638-133.407-4.36C98.741 56.835 81 92.52 81 119.615h9Z" fill="#EB262C"/><path d="M513.5 155.116a4.5 4.5 0 0 1-9 0h9Zm-129.696-46.279a4.499 4.499 0 0 1-3.142-5.534l10.759-39.044a4.5 4.5 0 1 1 8.676 2.39l-9.563 34.707 34.706 9.564a4.5 4.5 0 0 1-2.391 8.676l-39.045-10.759ZM504.5 155.116c0-37.93-49.828-85.011-117.278-46.704l-4.444-7.826c73.107-41.52 130.722 9.31 130.722 54.53h-9Z" fill="#4A52EC"/><defs><clipPath id="a"><path fill="#fff" transform="translate(0 1.166)" d="M0 0h473v185.897H0z"/></clipPath></defs></svg>