<svg width="643" height="479" fill="none" xmlns="http://www.w3.org/2000/svg"><path d="M407.082 479h54.769L113.019 278.709l-24.716 14.247L407.082 479Z" fill="url(#a)"/><path d="M97.32 152.235c-19.097 6.32-28.782-6.58-43.015-1.923-5.038 1.656-44.93 11.448-47.802-7.911-.606 2.057-.853 4.039-.645 5.789 2.515 19.763 42.807 9.837 47.872 8.167 14.232-4.657 23.918 8.243 43.014 1.923 9.981-3.294 12.663-9.406 11.661-14.914-1.368 3.528-4.721 6.762-11.086 8.869Z" fill="#D1D1D1"/><path d="M98.663 133.348c-9.113-3.018 1.529-20.133-19.752-24.452-21.281-4.32-26.448 27.641-43.431 19.766-14.082-6.533-26.144 4.739-29.106 14.644 2.857 19.178 42.566 9.475 47.603 7.842 14.175-4.612 23.819 8.168 42.837 1.909 6.319-2.093 9.678-5.291 11.053-8.758-.906-5.01-4.837-9.501-9.204-10.951ZM501.033 361.899l-126.319 72.909 21.405 12.34 126.318-72.908-21.404-12.341Z" fill="#FEFEFE"/><path opacity=".1" d="m350.835 253.774-71.136-41.069 71.136-41.07 71.169 41.07-71.169 41.069Z" fill="#000"/><path d="m398.126 214.545-48.394 27.926v-45.518l48.394-27.926v45.518Z" fill="#B6B6B6"/><path d="m349.732 242.471-48.394-27.926v-45.518l48.394 27.926v45.518Z" fill="#D1D1D1"/><path d="m349.732 196.953-48.394-27.926 48.394-27.959 48.394 27.959-48.394 27.926Z" fill="#FEFEFE"/><path d="m387.423 168.793-37.692 21.772V63.443l37.692-21.772v127.122Z" fill="#B6B6B6"/><path d="m349.732 190.565-37.725-21.772V41.671l37.725 21.772v127.122Z" fill="#D1D1D1"/><path d="M349.732 63.444 312.007 41.67 349.732 19.9l37.691 21.772-37.691 21.773Z" fill="#FEFEFE"/><path d="m373.879 41.872-24.146 13.946V27.893l24.146-13.947v27.926Z" fill="#B8B8B8"/><path d="m349.733 55.818-24.18-13.946V13.946l24.18 13.946v27.926Z" fill="#D1D1D1"/><path d="m349.733 27.892-24.18-13.946L349.733 0l24.147 13.946-24.147 13.946Z" fill="#FEFEFE"/><path d="m349.732 3.913-17.391 10.033 17.391 10.034 17.357-10.034-17.357-10.033Z" fill="#D1D1D1"/><path d="m365.752 14.716 1.337-.77-17.357-10.033-17.391 10.033 1.338.77 16.053-9.231 16.02 9.23ZM349.732 226.384l-48.394-27.926v1.204l48.394 27.926 48.394-27.926v-1.204l-48.394 27.926Z" fill="#7E7E7E"/><path d="m349.732 211.835-48.394-27.959v1.204l48.394 27.959 48.394-27.959v-1.204l-48.394 27.959Z" fill="#7E7E7E"/><path d="m318.829 67.156-2.14-1.238v-9.866l2.14 1.238v9.866ZM324.883 70.668l-2.141-1.238v-9.866l2.141 1.238v9.866ZM330.969 74.146l-2.14-1.238v-9.866l2.14 1.238v9.866ZM337.023 77.657l-2.141-1.237v-9.866l2.141 1.237v9.866ZM343.076 81.136l-2.14-1.238v-9.866l2.14 1.238v9.866ZM318.829 90.233l-2.14-1.238V79.13l2.14 1.237v9.867ZM324.883 93.71l-2.141-1.236v-9.867l2.141 1.238v9.866ZM330.969 97.222l-2.14-1.237V86.12l2.14 1.237v9.867ZM337.023 100.701l-2.141-1.238v-9.866l2.141 1.238v9.866ZM343.076 104.212l-2.14-1.237v-9.866l2.14 1.237v9.866ZM318.829 113.276l-2.14-1.238v-9.866l2.14 1.238v9.866ZM324.883 116.787l-2.141-1.237v-9.866l2.141 1.237v9.866ZM330.969 120.265l-2.14-1.237v-9.866l2.14 1.237v9.866ZM337.023 123.777l-2.141-1.237v-9.866l2.141 1.237v9.866ZM343.076 127.255l-2.14-1.204v-9.899l2.14 1.237v9.866ZM318.829 136.352l-2.14-1.238v-9.866l2.14 1.238v9.866ZM324.883 139.83l-2.141-1.237v-9.866l2.141 1.237v9.866ZM330.969 143.342l-2.14-1.238v-9.866l2.14 1.237v9.867ZM337.023 146.82l-2.141-1.204v-9.9l2.141 1.238v9.866ZM343.076 150.332l-2.14-1.238v-9.866l2.14 1.238v9.866ZM318.829 159.395l-2.14-1.238v-9.866l2.14 1.238v9.866ZM324.883 162.907l-2.141-1.238v-9.866l2.141 1.238v9.866ZM330.969 166.384l-2.14-1.204v-9.899l2.14 1.237v9.866ZM337.023 169.896l-2.141-1.237v-9.866l2.141 1.237v9.866ZM343.076 173.408l-2.14-1.238v-9.866l2.14 1.238v9.866ZM380.768 67.156l2.107-1.238v-9.866l-2.107 1.238v9.866ZM374.682 70.667l2.141-1.237v-9.866l-2.141 1.237v9.866ZM368.628 74.145l2.141-1.237v-9.866l-2.141 1.237v9.866ZM362.575 77.657l2.14-1.237v-9.866l-2.14 1.237v9.866ZM356.521 81.136l2.141-1.238v-9.866l-2.141 1.237v9.867ZM380.768 90.232l2.107-1.237v-9.866l-2.107 1.237v9.866ZM374.682 93.71l2.141-1.237v-9.866l-2.141 1.237v9.866ZM368.628 97.222l2.141-1.238v-9.866l-2.141 1.238v9.866ZM362.575 100.7l2.14-1.237v-9.866l-2.14 1.237v9.866ZM356.521 104.212l2.141-1.237v-9.866l-2.141 1.237v9.866ZM380.768 113.275l2.107-1.237v-9.866l-2.107 1.237v9.866ZM374.682 116.787l2.141-1.237v-9.866l-2.141 1.237v9.866ZM368.628 120.265l2.141-1.237v-9.866l-2.141 1.237v9.866ZM362.575 123.777l2.14-1.238v-9.866l-2.14 1.238v9.866ZM356.521 127.255l2.141-1.204v-9.899l-2.141 1.237v9.866ZM380.768 136.352l2.107-1.238v-9.866l-2.107 1.238v9.866ZM374.682 139.83l2.141-1.237v-9.866l-2.141 1.237v9.866ZM368.628 143.342l2.141-1.238v-9.866l-2.141 1.237v9.867ZM362.575 146.82l2.14-1.204v-9.9l-2.14 1.238v9.866ZM356.521 150.332l2.141-1.238v-9.866l-2.141 1.238v9.866ZM380.768 159.394l2.107-1.237v-9.866l-2.107 1.237v9.866ZM374.682 162.906l2.141-1.237v-9.866l-2.141 1.237v9.866ZM368.628 166.384l2.141-1.204v-9.899l-2.141 1.237v9.866ZM362.575 169.896l2.14-1.237v-9.866l-2.14 1.237v9.866ZM356.521 173.407l2.141-1.237v-9.866l-2.141 1.237v9.866Z" fill="#fff"/><path opacity=".1" d="m277.292 284.476 46.287-26.755-60.066-34.648-46.287 26.722 60.066 34.681Z" fill="#000"/><path d="m276.891 158.526 32.508-18.796-42.207-24.347-32.507 18.762 42.206 24.381Z" fill="#FEFEFE"/><path d="m267.494 120.199 34.848 20.1 1.104-.636-35.952-20.735-26.488 15.117 1.137.635 25.351-14.481Z" fill="url(#b)"/><path d="m267.494 120.199 34.848 20.1 1.104-.636-35.952-20.735-26.488 15.117 1.137.635 25.351-14.481Z" fill="#7E7E7E"/><path d="m242.143 134.68 25.35-14.481 34.816 20.1-25.217 14.581-34.949-20.2Z" fill="#D1D1D1"/><path d="m276.891 275.212-42.206-24.38V134.145l42.206 24.381v116.686Z" fill="#DEDEDE"/><path d="m309.399 256.417-32.507 18.795V158.526l32.507-18.796v116.687Z" fill="#B8B8B8"/><path d="m239.466 146.719.769.435v16.388l-.769-.401v-16.422Z" fill="#7E7E7E"/><path d="M247.225 151.201v16.388l-6.99-4.047v-16.388l6.99 4.047Z" fill="#fff"/><path d="m259.9 170.632-5.853 3.411v-8.093l5.853-3.411v8.093Z" fill="#B8B8B8"/><path d="m234.718 156.05-5.853 3.378-.033-8.06 5.853-3.378.033 8.06Z" fill="#7E7E7E"/><path d="m254.048 174.044-26.02-15.017v-8.093l26.02 15.016v8.094Z" fill="#D1D1D1"/><path d="m254.048 165.013-24.414-14.08 5.05-2.943v-.903l-6.054 3.512-.602.334 26.02 15.017.769-.468 5.084-2.943-.803-.435-5.05 2.909Z" fill="#fff"/><path d="m239.466 171.603.769.434v16.388l-.769-.401v-16.421Z" fill="#7E7E7E"/><path d="M247.225 176.084v16.388l-6.99-4.047v-16.388l6.99 4.047Z" fill="#fff"/><path d="m259.9 195.515-5.853 3.411v-8.093l5.853-3.412v8.094Z" fill="#B8B8B8"/><path d="m234.718 180.933-5.853 3.378-.033-8.027 5.853-3.411.033 8.06Z" fill="#7E7E7E"/><path d="m254.048 198.926-26.02-15.016v-8.094l26.02 15.017v8.093Z" fill="#D1D1D1"/><path d="m254.048 189.896-24.414-14.08 5.05-2.943v-.903l-6.054 3.512-.602.334 26.02 15.017.769-.468 5.084-2.944-.803-.434-5.05 2.909Z" fill="#fff"/><path d="m239.466 196.485.769.434v16.388l-.769-.401v-16.421Z" fill="#7E7E7E"/><path d="M247.225 200.966v16.421l-6.99-4.08v-16.388l6.99 4.047Z" fill="#fff"/><path d="m259.9 220.397-5.853 3.411v-8.093l5.853-3.411v8.093Z" fill="#B8B8B8"/><path d="m234.718 205.816-5.853 3.377-.033-8.026 5.853-3.412.033 8.061Z" fill="#7E7E7E"/><path d="m254.048 223.808-26.02-15.016v-8.094l26.02 15.017v8.093Z" fill="#D1D1D1"/><path d="m254.048 214.778-24.414-14.08 5.05-2.943v-.903l-6.054 3.512-.602.334 26.02 15.017.769-.468 5.084-2.91-.803-.468-5.05 2.909Z" fill="#fff"/><path d="m239.466 221.367.77.434v16.388l-.77-.401v-16.421Z" fill="#7E7E7E"/><path d="M247.225 225.848v16.421l-6.989-4.08v-16.387l6.989 4.046Z" fill="#fff"/><path d="m259.9 245.313-5.853 3.378v-8.094l5.853-3.378v8.094Z" fill="#B8B8B8"/><path d="m234.718 230.698-5.853 3.378-.033-8.027 5.853-3.411.033 8.06Z" fill="#7E7E7E"/><path d="m254.048 248.691-26.019-15.017v-8.093l26.019 15.016v8.094Z" fill="#D1D1D1"/><path d="m254.048 239.694-24.414-14.113 5.05-2.943v-.903l-6.053 3.511-.602.335 26.019 15.016.769-.468 5.084-2.91-.803-.468-5.05 2.943Z" fill="#fff"/><path d="m287.124 159.596-.501.301v10.97l.501-.301v-10.97Z" fill="#7E7E7E"/><path d="M281.941 162.606v10.97l4.682-2.709v-10.97l-4.682 2.709Z" fill="#fff"/><path d="m295.954 154.513-.502.301v10.969l.502-.301v-10.969Z" fill="#7E7E7E"/><path d="M290.771 157.522v10.97l4.682-2.709v-10.97l-4.682 2.709Z" fill="#fff"/><path d="m304.782 149.429-.501.268V160.7l.501-.301v-10.97Z" fill="#7E7E7E"/><path d="M299.599 152.405v11.004l4.682-2.709v-11.004l-4.682 2.709Z" fill="#fff"/><path d="m287.124 184.479-.501.267v11.003l.501-.301v-10.969Z" fill="#7E7E7E"/><path d="M281.941 187.455v11.003l4.682-2.709v-11.003l-4.682 2.709Z" fill="#fff"/><path d="m295.954 179.395-.502.268v11.003l.502-.301v-10.97Z" fill="#7E7E7E"/><path d="M290.771 182.372v10.969l4.682-2.675v-11.003l-4.682 2.709Z" fill="#fff"/><path d="m304.782 174.278-.501.301v10.97l.501-.268v-11.003Z" fill="#7E7E7E"/><path d="M299.599 177.288v10.97l4.682-2.709v-10.97l-4.682 2.709Z" fill="#fff"/><path d="m287.124 209.328-.501.301v10.969l.501-.267v-11.003Z" fill="#7E7E7E"/><path d="M281.941 212.338v10.969l4.682-2.709v-10.969l-4.682 2.709Z" fill="#fff"/><path d="m295.954 204.244-.502.301v10.97l.502-.268v-11.003Z" fill="#7E7E7E"/><path d="M290.771 207.254v10.97l4.682-2.709v-10.97l-4.682 2.709Z" fill="#fff"/><path d="m304.782 199.161-.501.301v10.969l.501-.301v-10.969Z" fill="#7E7E7E"/><path d="M299.599 202.171v10.969l4.682-2.709v-10.969l-4.682 2.709Z" fill="#fff"/><path d="m287.124 234.21-.501.301v10.97l.501-.301v-10.97Z" fill="#7E7E7E"/><path d="M281.941 237.22v10.969l4.682-2.709v-10.969l-4.682 2.709Z" fill="#fff"/><path d="m295.954 229.126-.502.268v11.003l.502-.301v-10.97Z" fill="#7E7E7E"/><path d="M290.771 232.103v11.003l4.682-2.709v-11.003l-4.682 2.709Z" fill="#fff"/><path d="m304.782 224.043-.501.267v11.004l.501-.301v-10.97Z" fill="#7E7E7E"/><path d="M299.599 227.019v11.003l4.682-2.709V224.31l-4.682 2.709Z" fill="#fff"/><path opacity=".1" d="m416.721 288.79-44.682-25.819c-2.909-1.672-2.541-4.615.803-6.555l43.043-24.849c3.378-1.939 8.461-2.14 11.371-.468l44.681 25.786c2.91 1.672 2.542 4.615-.803 6.555l-43.042 24.849c-3.378 1.973-8.462 2.174-11.371.501Z" fill="#000"/><path d="m418.36 127.422-30.702-17.725c-2.007-1.17-1.739-3.177.568-4.515l29.565-17.056c2.308-1.338 5.819-1.472 7.826-.335l30.702 17.726c2.006 1.17 1.739 3.177-.569 4.515l-29.564 17.056c-2.308 1.338-5.82 1.472-7.826.334Z" fill="#FEFEFE"/><path d="m396.421 108.058 22.407-12.943c1.74-1.003 4.415-1.137 5.92-.234l23.244 13.411c.2.134.368.234.501.402.803-.903.669-1.974-.501-2.676l-23.244-13.411c-1.505-.87-4.18-.77-5.92.234l-22.407 12.943c-1.505.869-1.873 2.14-.937 3.043.235-.301.536-.568.937-.769Z" fill="#7E7E7E"/><path d="m395.987 109.195 23.243 13.411c1.505.87 4.181.77 5.92-.234l22.407-12.943c.402-.234.703-.501.937-.769a3.286 3.286 0 0 0-.502-.401l-23.243-13.411c-1.505-.87-4.181-.77-5.92.234l-22.408 12.943a3.706 3.706 0 0 0-.936.769c.134.134.301.267.502.401Z" fill="#D1D1D1"/><path d="M457.656 107.624c-.067.836-.702 1.705-1.906 2.408l-29.565 17.056c-1.204.702-2.709 1.07-4.181 1.104h-.033V279.594c1.471-.034 3.01-.402 4.214-1.104l29.665-17.123c1.003-.569 1.605-1.271 1.806-2.007V107.624Z" fill="#B8B8B8"/><path d="M387.692 109.697c-.97-.568-1.371-1.304-1.338-2.073h-.033V259.627c.167.536.568 1.004 1.237 1.405l30.769 17.759c.97.569 2.274.803 3.645.769V128.192h-.033c-1.338.033-2.642-.201-3.612-.769l-30.635-17.726Z" fill="#D1D1D1"/><path d="M426.186 149.261c-2.609 1.505-5.418 1.606-7.826.335l-32.039-18.495v.87l32.039 18.494c2.007 1.171 5.485 1.004 7.826-.334l31.471-18.194v-.836l-31.471 18.16ZM426.186 172.003c-2.609 1.505-5.418 1.606-7.826.335l-32.039-18.495v.87l32.039 18.494c2.007 1.171 5.485 1.004 7.826-.334l31.471-18.194v-.836l-31.471 18.16ZM426.186 194.745c-2.609 1.505-5.418 1.606-7.826.335l-32.039-18.495v.87l32.039 18.494c2.007 1.171 5.485 1.004 7.826-.334l31.471-18.194v-.836l-31.471 18.16ZM426.186 217.488c-2.609 1.505-5.418 1.605-7.826.334l-32.039-18.495v.87l32.039 18.495c2.007 1.17 5.485 1.003 7.826-.335l31.471-18.194v-.836l-31.471 18.161ZM426.186 240.229c-2.609 1.505-5.418 1.606-7.826.335l-32.039-18.495v.87l32.039 18.494c2.007 1.171 5.485 1.004 7.826-.334l31.471-18.194v-.836l-31.471 18.16Z" fill="#7E7E7E"/><path opacity=".1" d="M642.436 373.605 526.585 315.78l-39.966-36.153-89.697 52.173 50.501 29.698 36.755-21.237 108.894 62.875 49.364-29.531Z" fill="#000"/><path d="m484.345 331.933-35.652 20.568v-41.136l35.652-20.568v41.136Z" fill="#B8B8B8"/><path d="m448.694 352.501-35.618-20.568v-41.136l35.618 20.568v41.136ZM591.267 393.671l-106.922-61.738v-41.136l106.922 61.704v41.17Z" fill="#D1D1D1"/><path d="m591.267 352.501-106.922-61.704 35.652-20.602 106.888 61.738-35.618 20.568Z" fill="#FEFEFE"/><path d="m626.885 373.069-35.618 20.602v-41.17l35.618-20.568v41.136Z" fill="#B8B8B8"/><path d="m448.694 311.365-35.618-20.568 71.269-41.17 35.652 20.568-71.303 41.17ZM591.198 366.849l29.398-16.32v-5.352l-29.398 16.321v5.351Z" fill="#FEFEFE"/><path d="M619.291 345.913v5.351l-28.093 15.585v1.505l29.398-16.32v-6.857l-1.305.736Z" fill="#7E7E7E"/><path d="m591.199 361.498-99.363-57.357v5.351l99.363 57.357v-5.351Z" fill="#FEFEFE"/><path d="M493.107 310.228v-5.351l-1.271-.736v6.856l99.363 57.357v-1.505l-98.092-56.621Z" fill="#7E7E7E"/><path d="m591.198 382.2 29.398-16.321v-5.351l-29.398 16.354v5.318Z" fill="#FEFEFE"/><path d="M619.291 361.264v5.351L591.198 382.2v1.505l29.398-16.321v-6.856l-1.305.736Z" fill="#7E7E7E"/><path d="m591.199 376.882-99.363-57.39v5.351l99.363 57.357v-5.318Z" fill="#FEFEFE"/><path d="M493.107 325.579v-5.351l-1.271-.736v6.856l99.363 57.357V382.2l-98.092-56.621Z" fill="#7E7E7E"/><path d="m473.977 337.92-14.28 8.227v-30.234l14.28-8.227v30.234Z" fill="#FEFEFE"/><path d="M471.702 308.991v30.233l2.275-1.304v-30.234l-2.275 1.305ZM418.527 306.181v16.054l1.806 1.036v-16.053l-1.806-1.037Z" fill="#7E7E7E"/><path d="m442.306 319.894-21.973-12.675v16.053l21.973 12.675v-16.053Z" fill="#FEFEFE"/><path d="m448.694 279.727-14.649 8.495 14.649 8.461 14.682-8.461-14.682-8.495Z" fill="#D1D1D1"/><path d="M463.375 288.222v1.839l-14.682 8.461v-1.839l14.682-8.461Z" fill="#B8B8B8"/><path d="M434.045 288.222v1.839l14.649 8.461v-1.839l-14.649-8.461Z" fill="#DFDFDF"/><path d="m520.899 276.65-24.548 14.147 94.38 54.48 24.147-14.381-93.979-54.246Z" fill="#D1D1D1"/><path d="m612.603 331.799 2.275-.903-93.979-54.246-24.548 14.147 1.907 1.103 22.641-13.076 91.704 52.975Z" fill="#7E7E7E"/><path d="M425.5 416.748c-2.776-1.606-7.257-1.606-10 0-2.508 1.471-2.709 3.745-.635 5.317l-36.004 19.444-147.273-87.769-1.036 1.806 147.807 88.036.502.301 38.311-20.748c2.676.837 6.054.669 8.328-.635 2.742-1.572 2.742-4.181 0-5.752Z" fill="#F40494"/><path opacity=".1" d="M347.123 408.621s.401 18.996-28.094 23.645c-28.494 4.649-91.436-35.919-97.088-39.297-5.652-3.378-11.137-16.722-10.468-25.05.702-8.327 12.575-1.906 12.575-1.906l123.075 42.608Z" fill="#000"/><path d="m312.909 415.577 2.441 9.064c.101.836-.033 1.605 1.706 1.337 3.779-.602 13.679-2.508 20.936-7.591 3.311-2.342 5.418-4.047 6.756-5.251a7.263 7.263 0 0 0 2.374-5.385v-10.668l-28.829 10.668a1.798 1.798 0 0 0-1.036 1.004l-3.445 5.117c-.167.267-.937 1.371-.903 1.705Z" fill="url(#c)"/><path d="m275.486 407.049 17.825-4.916-18.427-9.197-.301 12.006.903 2.107Z" fill="#950B63"/><path d="M295.318 413.671c0-5.352-3.746-11.873-8.395-14.549-2.341-1.337-4.448-1.471-5.953-.568l-1.94 1.137.636.1c-.703 1.004-1.104 2.408-1.104 4.181 0 5.351 3.746 11.872 8.395 14.548 1.438.836 2.775 1.171 3.946 1.137l-.401.836 2.341-1.338c.033 0 .067-.033.1-.066l.1-.067c1.405-.937 2.275-2.776 2.275-5.351Z" fill="#191919"/><path d="M293.076 415.008c0 5.351-3.745 7.525-8.394 4.85-4.649-2.676-8.395-9.198-8.395-14.549 0-5.351 3.746-7.525 8.395-4.849 4.615 2.675 8.394 9.197 8.394 14.548Z" fill="#323232"/><path d="M289.698 413.069c0 3.21-2.241 4.514-5.017 2.909-2.776-1.605-5.017-5.518-5.017-8.729 0-3.21 2.241-4.515 5.017-2.909 2.776 1.605 5.017 5.518 5.017 8.729Z" fill="#EEEFEF"/><path d="M285.819 410.828c0 .735-.535 1.036-1.171.668-.635-.367-1.17-1.27-1.17-2.006 0-.736.501-1.037 1.17-.669.669.368 1.171 1.271 1.171 2.007Z" fill="#323232"/><path d="m219.131 374.708 1.673.067 5.652-6.053-5.92-.836-1.873 6.053.468.769Z" fill="#950B63"/><path d="M238.73 384.407c0-5.351-3.745-11.873-8.394-14.548-2.341-1.338-4.448-1.472-5.953-.569l-1.94 1.137.636.101c-.703 1.003-1.104 2.408-1.104 4.18 0 5.351 3.746 11.873 8.394 14.548 1.438.836 2.776 1.171 3.947 1.137l-.402.837 2.342-1.372c.033 0 .066-.033.1-.067l.1-.066c1.405-.903 2.274-2.743 2.274-5.318Z" fill="#191919"/><path d="M236.456 385.711c0 5.351-3.746 7.525-8.394 4.85-4.649-2.676-8.395-9.197-8.395-14.549 0-5.351 3.746-7.524 8.395-4.849 4.648 2.676 8.394 9.197 8.394 14.548Z" fill="#323232"/><path d="M233.112 383.772c0 3.21-2.241 4.515-5.017 2.909-2.776-1.605-5.016-5.518-5.016-8.729 0-3.21 2.24-4.514 5.016-2.909 2.776 1.605 5.017 5.518 5.017 8.729Z" fill="#EEEFEF"/><path d="M229.233 381.531c0 .735-.502 1.036-1.171.669-.635-.368-1.17-1.271-1.17-2.007 0-.736.535-1.037 1.17-.669.669.368 1.171 1.271 1.171 2.007Z" fill="#323232"/><path d="m213.847 353.07 31.103-19.699c1.372-.869 2.877-1.271 4.415-.735l7.726 2.709s17.625-1.773 31.839 5.384c14.213 7.157 22.875 18.495 24.882 20.602 2.007 2.107 10.267 11.605 10.267 11.605s22.174 16.153 23.043 23.979c0 .101 0 .167-.066.234-1.171 1.137-13.746 13.11-31.405 17.826-.836.234-1.705.1-2.441-.334l-27.725-16.254-72.474-39.03.836-6.287Z" fill="url(#d)"/><path d="M310.234 409.289c-7.525-7.391-21.773-16.889-28.094-26.655-6.32-9.765-17.29-20.401-30.735-24.414-11.973-3.578-23.143-1.739-23.946-1.605h-.1l-12.241-4.147a1.566 1.566 0 0 0-2.073 1.505v6.287c0 .067 0 .101-.067.134-.335.301-2.074 2.107-1.706 5.92.402 4.214 2.81 5.518 2.81 5.518l5.083 2.91c0-.201.034-.235.034-.402.401-4.414 5.317-6.689 9.932-4.013 4.649 2.676 8.395 9.197 8.395 14.548 0 .134 0 .268-.034.402l33.612 19.297 4.047 2.307c.133.067.334-.033.301-.2-.168-1.739-.469-8.495 5.484-8.662 7.024-.201 12.609 9.431 13.244 15.183.201 1.907-.067 3.345-.2 4.382 0 .066.033.133.1.167l9.833 5.652c.1.033 4.615 2.207 10.936 2.709a.761.761 0 0 0 .803-.636c.301-2.274.903-9.966-5.418-16.187Z" fill="url(#e)"/><path d="m228.128 359.993 58.427 34.213s-8.261-17.893-20.501-26.354c-11.472-7.926-18.094-9.532-26.053-10.033-6.355-.468-11.873 2.174-11.873 2.174ZM277.792 371.364l14.949 18.294a2.006 2.006 0 0 0 2.208.669c3.846-1.238 15.217-5.485 25.284-15.284a1.447 1.447 0 0 0 .066-1.973l-15.752-18.194a1.305 1.305 0 0 0-1.906-.067c-2.442 2.508-9.833 9.097-24.347 14.682-.736.301-1.004 1.237-.502 1.873ZM243.312 353.571c-1.304-.2-4.749-.735-7.826-.735-.401 0-.535-.502-.2-.736l22.775-14.247c.167-.101.368-.168.569-.201 1.103-.1 4.882-.401 7.458-.034.367.067.468.536.167.736l-21.973 14.983c-.301.201-.635.301-.97.234Z" fill="#EEEFEF"/><path d="M212.979 360.06v-3.779s4.782 1.471 4.815 4.18c.067 2.742-4.815-.401-4.815-.401Z" fill="#D64883"/><path d="M347.122 400.627v5.853s-1.973 2.475-4.147 2.107c-2.174-.401-1.137-4.013 0-4.649 1.137-.702 4.147-3.311 4.147-3.311ZM315.183 417.952s5.284-2.375 6.354-1.037c1.305 1.639.97 4.214-1.572 5.117-2.541.903-3.645 1.404-4.648 1.271-1.004-.134-2.141-.168-2.877-.636-1.204-.702-1.438-3.612 0-4.548.636-.368 2.743-.167 2.743-.167Z" fill="#EEEFEF"/><path d="m342.14 319.693-45.752-26.087 45.451-26.554 45.752 26.053-45.451 26.588Z" fill="#FEFEFE"/><g clip-path="url(#f)"><path opacity=".1" d="m376.549 329.134-11.76-6.788 10.149-5.862 11.724 6.81-10.113 5.84ZM329.891 302.599l-11.76-6.789 10.15-5.861 11.723 6.81-10.113 5.84Z" fill="#000"/><path d="M370.055 301.429v21.446l6.465 3.736v-21.446l-6.465-3.736Z" fill="#B8B8B8"/><path d="m381.477 323.75-4.957 2.861v-21.446l4.957-2.861v21.446Z" fill="#A2A2A2"/><path d="M323.441 274.519v21.446l6.465 3.729v-21.446l-6.465-3.729Z" fill="#B8B8B8"/><path d="m334.856 296.84-4.95 2.854v-21.446l4.95-2.854v21.446Z" fill="#A2A2A2"/><path d="M383.146 316.146 317.418 278.1V176.18l65.728 38.046v101.92Z" fill="#D1D1D1"/><path d="m376.453 307.099-53.828-31.168-.007-90.55 53.828 31.169.007 90.549Z" fill="#EB242A"/><path d="m324.405 186.411-1.787-1.03v90.557l53.828 31.169v-1.971l-52.041-30.132v-88.593Z" fill="#7E7E7E"/><path d="m391.31 311.454-8.164 4.692v-101.92l8.164-4.692v101.92Z" fill="#B8B8B8"/><path d="m325.582 171.488-8.164 4.693 65.728 38.045 8.164-4.692-65.728-38.046Z" fill="#FEFEFE"/></g><g clip-path="url(#g)" fill="#fff"><path d="M338.084 203.45v19.04l-3.23-1.922v-14.707l-3.88-.873v-2.962l6.762 1.218.348.206Zm16.307 17.571v3.288c0 1.427-.131 2.58-.393 3.46-.262.87-.639 1.49-1.133 1.857-.486.364-1.065.502-1.738.415-.673-.088-1.421-.376-2.243-.865a10.755 10.755 0 0 1-1.839-1.381 10.523 10.523 0 0 1-1.537-1.841 12.602 12.602 0 0 1-1.166-2.273 14.562 14.562 0 0 1-.74-2.737 18.754 18.754 0 0 1-.258-3.207v-3.288c0-1.427.131-2.572.392-3.434.27-.866.647-1.481 1.133-1.845.494-.358 1.077-.49 1.75-.394.673.087 1.42.375 2.243.865a10.25 10.25 0 0 1 1.828 1.387c.568.53 1.08 1.135 1.536 1.815.456.68.845 1.438 1.166 2.273.322.826.569 1.734.741 2.724.172.981.258 2.041.258 3.181Zm-3.242 1.856v-4.294c0-.687-.033-1.307-.1-1.86a8.525 8.525 0 0 0-.281-1.472 5.621 5.621 0 0 0-.471-1.168 4.137 4.137 0 0 0-.639-.876 3.821 3.821 0 0 0-.796-.63c-.367-.218-.692-.329-.976-.333-.277.001-.512.126-.707.376-.194.241-.344.63-.448 1.168-.097.534-.146 1.227-.146 2.08v4.293c0 .687.03 1.31.09 1.867.067.562.164 1.068.291 1.518.135.445.292.839.471 1.181.187.337.4.629.64.876.246.251.515.463.807.637.359.213.677.32.953.319.284-.005.524-.132.718-.382.202-.254.351-.652.449-1.195.097-.542.145-1.244.145-2.105Zm5.395-3.746v-1.005c0-.722.134-1.299.404-1.73.269-.432.665-.67 1.188-.716.524-.045 1.167.159 1.929.613a7.017 7.017 0 0 1 1.963 1.703 7.35 7.35 0 0 1 1.189 2.129c.269.752.403 1.489.403 2.211v1.005c0 .704-.134 1.272-.403 1.704-.262.436-.655.676-1.178.722-.523.045-1.17-.161-1.94-.619a7.1 7.1 0 0 1-1.963-1.703 7.594 7.594 0 0 1-1.188-2.13 6.446 6.446 0 0 1-.404-2.184Zm2.142.269v1.005c0 .304.048.625.146.961.104.332.261.647.471.946.216.294.478.532.785.715.321.191.583.264.785.219a.673.673 0 0 0 .448-.399c.098-.22.146-.483.146-.787v-1.005a3.24 3.24 0 0 0-.157-.981 3.017 3.017 0 0 0-.46-.939 2.46 2.46 0 0 0-.785-.728c-.299-.178-.553-.242-.762-.193-.21.041-.367.169-.471.386-.098.211-.146.478-.146.8Zm5.663 15.062v-1.005c0-.713.135-1.286.404-1.717.277-.427.677-.663 1.2-.709.531-.04 1.181.168 1.951.626a6.995 6.995 0 0 1 1.952 1.696 7.622 7.622 0 0 1 1.189 2.13c.269.752.403 1.484.403 2.198v1.004c0 .714-.134 1.286-.403 1.718-.262.436-.655.676-1.178.722-.523.045-1.17-.162-1.94-.62a7.08 7.08 0 0 1-1.963-1.702 7.757 7.757 0 0 1-1.211-2.143 6.508 6.508 0 0 1-.404-2.198Zm2.154.276v1.005c0 .313.059.645.179.994.12.35.284.669.493.959.217.295.468.526.752.695.359.214.639.298.841.253.202-.045.34-.185.415-.419a2.42 2.42 0 0 0 .123-.814v-1.005c0-.313-.052-.635-.157-.967a3.187 3.187 0 0 0-.471-.946 2.444 2.444 0 0 0-.774-.722c-.314-.186-.575-.255-.785-.206-.201.046-.355.176-.459.392-.105.208-.157.468-.157.781Zm2.198-10.319-7.974 10.106-1.57-1.899 7.974-10.107 1.57 1.9ZM336.986 245.179l2.19 1.302c-.058.809-.268 1.433-.63 1.871-.358.441-.852.658-1.483.649-.626-.005-1.376-.268-2.25-.787a7.927 7.927 0 0 1-1.831-1.503 9.33 9.33 0 0 1-1.371-2.02 10.234 10.234 0 0 1-.841-2.393 11.345 11.345 0 0 1-.259-2.641l.014-.86c.015-.909.131-1.669.349-2.28.222-.613.53-1.064.924-1.351.399-.284.872-.405 1.419-.361.546.045 1.154.266 1.823.663a8.433 8.433 0 0 1 2.238 1.9 8.534 8.534 0 0 1 1.403 2.4c.33.862.523 1.734.577 2.615l-2.196-1.307a5.121 5.121 0 0 0-.236-1.421 3.484 3.484 0 0 0-.653-1.189c-.29-.356-.679-.679-1.167-.97-.366-.218-.687-.328-.963-.332a.886.886 0 0 0-.701.315c-.191.213-.336.539-.437.978-.096.436-.15.984-.161 1.643l-.014.877c-.011.642.021 1.232.096 1.77a6.73 6.73 0 0 0 .361 1.453c.17.434.39.817.661 1.15.275.331.608.612.999.844.459.273.839.413 1.139.42a.763.763 0 0 0 .694-.353c.166-.239.269-.6.306-1.082Zm8.07-1.429-3.071 8.558-2.336-1.39 4.168-10.047 1.486.884-.247 1.995Zm2.238 11.717-2.736-12.013-.199-2.261 1.501.893 3.778 14.775-2.344-1.394Zm-.055-4.696-.033 2.002-5.631-3.35.033-2.002 5.631 3.35Zm8.992 6.734a2.427 2.427 0 0 0-.078-.648 2.283 2.283 0 0 0-.3-.677 6.176 6.176 0 0 0-.629-.831c-.271-.31-.623-.674-1.054-1.092a27.278 27.278 0 0 1-1.367-1.432 13.094 13.094 0 0 1-1.129-1.472 7.437 7.437 0 0 1-.759-1.527 4.504 4.504 0 0 1-.255-1.571c.009-.517.114-.927.317-1.232a1.38 1.38 0 0 1 .838-.602c.356-.098.775-.087 1.256.033.486.123 1.017.356 1.593.699a8.165 8.165 0 0 1 2.05 1.718c.58.678 1.027 1.4 1.34 2.165.317.768.47 1.521.458 2.26l-2.183-1.298a2.96 2.96 0 0 0-.182-1.072 3.224 3.224 0 0 0-.574-1.005 3.672 3.672 0 0 0-.978-.822c-.381-.227-.699-.347-.955-.362-.256-.02-.449.045-.58.197-.131.146-.198.358-.203.636-.003.211.037.427.122.65.09.225.224.466.403.721.178.255.398.526.659.814.261.287.564.596.909.928.577.55 1.084 1.083 1.519 1.6.44.52.806 1.028 1.099 1.523.292.495.511.989.656 1.483.144.493.212.995.204 1.506-.009.54-.107.969-.295 1.287a1.283 1.283 0 0 1-.802.616c-.346.092-.758.074-1.234-.054-.476-.129-1.007-.367-1.593-.716a9.628 9.628 0 0 1-1.555-1.166c-.51-.47-.972-.994-1.387-1.573a7.843 7.843 0 0 1-.975-1.854 5.622 5.622 0 0 1-.343-2.037l2.204 1.312c-.006.386.039.743.138 1.071.098.328.238.629.421.904.188.278.41.531.668.759.262.231.549.439.862.625.381.226.694.35.94.37.251.023.437-.041.558-.193.126-.149.191-.362.196-.641Zm10.869 2.32-.033 1.994-5.566-3.312.034-1.993 5.565 3.311Zm-4.83-7.975-.206 12.404-2.196-1.307.205-12.404 2.197 1.307Zm6.481 3.855-.206 12.405-2.189-1.303.205-12.404 2.19 1.302Zm-34.097 7.948-2.739-1.629.014-1.764 2.3 1.368c.405.241.738.379.999.413.26.029.456-.035.587-.192.136-.16.206-.411.212-.752a2.739 2.739 0 0 0-.175-1.05 2.48 2.48 0 0 0-.57-.864 4.916 4.916 0 0 0-1-.759l-1.523-.906-.173 10.403-2.197-1.307.206-12.405 3.72 2.213c.62.369 1.173.767 1.659 1.194.491.429.905.885 1.242 1.367.337.481.592.989.766 1.522.173.528.255 1.081.246 1.661-.009.511-.117.923-.324 1.235-.202.316-.518.484-.947.504-.425.022-.976-.154-1.655-.529l-.648.277Zm-.186 5.387-3.244-1.93.89-1.484 2.387 1.421c.386.229.702.345.948.349.247-.003.431-.094.552-.274.121-.181.185-.432.19-.756a3.3 3.3 0 0 0-.145-1.042 2.61 2.61 0 0 0-.488-.909 3.3 3.3 0 0 0-.904-.762l-2.117-1.259.044-1.746 2.636 1.568.494.991c.65.374 1.17.819 1.56 1.332.396.511.681 1.039.854 1.584.179.547.263 1.071.255 1.571-.013.795-.173 1.377-.48 1.745-.307.362-.75.508-1.331.438-.576-.067-1.276-.346-2.101-.837Zm10.005-4.432-3.07 8.558-2.336-1.39 4.167-10.047 1.487.884-.248 1.995Zm2.239 11.716-2.737-12.012-.199-2.261 1.501.893 3.778 14.775-2.343-1.395Zm-.055-4.696-.034 2.003-5.631-3.351.033-2.002 5.632 3.35Zm9.504 6.162 2.189 1.303c-.058.809-.268 1.432-.63 1.871-.357.441-.851.657-1.482.649-.626-.005-1.376-.268-2.25-.788a7.855 7.855 0 0 1-1.831-1.502 9.281 9.281 0 0 1-1.372-2.021 10.27 10.27 0 0 1-.84-2.392 11.345 11.345 0 0 1-.26-2.641l.015-.861c.015-.908.131-1.668.348-2.279.222-.613.53-1.064.925-1.351.399-.285.871-.405 1.418-.361.546.044 1.154.265 1.823.663a8.438 8.438 0 0 1 2.239 1.9 8.53 8.53 0 0 1 1.402 2.4c.331.862.523 1.734.578 2.615l-2.197-1.307a5.135 5.135 0 0 0-.235-1.422 3.509 3.509 0 0 0-.654-1.188c-.289-.356-.678-.68-1.167-.97-.366-.218-.687-.329-.963-.332a.886.886 0 0 0-.7.314c-.191.214-.337.54-.438.979-.096.436-.149.984-.16 1.642l-.015.878c-.011.642.022 1.232.096 1.769.075.533.196 1.017.361 1.454.17.434.391.817.661 1.15.276.331.609.612.999.844.459.273.839.413 1.14.42.3.007.531-.111.693-.353.167-.239.269-.6.307-1.083Zm5.966-4.821-.206 12.404-2.197-1.307.206-12.404 2.197 1.307Zm6.385 3.799-4.326 3.611-2.49 1.6-.355-2.655 1.691-1.644 2.786-2.516 2.694 1.604Zm-2.702 10.918-3.047-7.602 1.652-.618 3.994 9.767-2.599-1.547Z"/></g><path d="M384.436 389.904s2.87-14.537-12.743-13.638c0 0 .275 16.002 12.743 13.638ZM394.922 395.364s-4.747-9.434 9.536-12.53c0 0 1.519 13.596-9.536 12.53Z" fill="#EC715D"/><path d="M398.888 366.77s7.638 16.42-6.92 19.264c-.021 0-10.253-11.881 6.92-19.264Z" fill="#E65473"/><path d="M390.956 402.789h.485c-.042-.356-.063-.711-.105-1.046-.211-2.97-.148-5.961.105-8.932.253-2.97.696-5.919 1.266-8.848.295-1.464.612-2.928.992-4.371a81.932 81.932 0 0 1 1.202-4.33c-1.097 2.782-1.941 5.689-2.595 8.597a77.972 77.972 0 0 0-.865 4.413 78.141 78.141 0 0 0-.548 4.477 53.245 53.245 0 0 0-.19 4.497c0 1.506.063 2.991.168 4.56.022.376.043.648.085.983ZM379.247 382.102l.738.983c.253.314.464.669.718 1.004.232.335.485.669.696 1.025l.654 1.046c.211.355.443.69.633 1.067l.59 1.087c.19.356.401.711.57 1.088.359.732.738 1.464 1.076 2.217l.992 2.259.253.565.211.586.443 1.15c.633 1.527 1.097 3.096 1.624 4.644l.19.585.169.586.338 1.192.084.314h.675l-.548-1.673-.169-.607-.19-.586c-.506-1.568-.992-3.158-1.604-4.685l-.443-1.15-.232-.586-.253-.565-1.013-2.259c-.358-.732-.759-1.485-1.139-2.217-.19-.377-.401-.732-.612-1.088l-.633-1.067c-.211-.355-.421-.711-.654-1.046l-.696-1.024c-.232-.356-.485-.67-.738-1.004-.253-.335-.485-.67-.76-.984l-.801-.941-.865-.899c-.591-.586-1.203-1.151-1.878-1.611.654.523 1.202 1.13 1.751 1.736l.823.858ZM393.108 403.479l.084-.627.148-.711.274-1.444.359-1.422c.485-1.883 1.118-3.744 1.962-5.501.422-.879.886-1.757 1.414-2.573.506-.837 1.097-1.632 1.793-2.322-.781.628-1.414 1.401-2.004 2.175-.296.398-.57.816-.844 1.235-.275.418-.486.857-.739 1.296-.928 1.757-1.582 3.64-2.11 5.564l-.358 1.444-.317 1.422-.147.774-.127.711h.612v-.021Z" fill="#E02D7B"/><path d="M338.817 107.699c29.315 11.733 45.797-7.44 67.652 1.221 7.735 3.077 69.316 22.268 75.76-7.65.743 3.269.932 6.385.43 9.094-5.923 30.581-68.118 11.145-75.894 8.042-21.854-8.661-38.337 10.511-67.651-1.222-15.323-6.117-18.918-15.915-16.793-24.408 1.791 5.637 6.725 11.012 16.496 14.923Z" fill="#D1D1D1"/><path d="M338.6 78.043c14.599-3.818-.371-31.552 33.448-36.213 33.82-4.66 38.705 45.696 66.141 35.07 22.749-8.815 40.534 9.945 44.184 25.684-6.415 29.636-67.729 10.625-75.467 7.585-21.771-8.577-38.187 10.416-67.39-1.203-9.703-3.881-14.651-9.197-16.458-14.74 1.926-7.727 8.546-14.347 15.542-16.183Z" fill="#FEFEFE"/><path opacity=".06" d="M243.774 328.349c-10.41 2.258-39.273-6.81-64.417-20.238-25.218-13.452-37.163-26.123-26.753-28.381 10.41-2.258 39.273 6.81 64.417 20.238 25.219 13.452 37.163 26.123 26.753 28.381Z" fill="#000"/><g opacity=".4" clip-path="url(#h)"><path opacity=".1" d="M165.059 445.989 146 434.965l19.059-11.024 19.099 11.024-19.099 11.024Z" fill="#000"/><path d="m165.059 437.21-2.442-1.443v-23.491l2.442 1.443v23.491ZM167.542 435.767l-2.483 1.443v-23.491l2.483-1.443v23.491Z" fill="#B8B8B8"/><path d="m165.059 430.395-16.897-9.781L165.059 358v72.395Z" fill="#D1D1D1"/><path d="m181.996 420.614-16.937 9.781V358l16.937 62.614Z" fill="#B8B8B8"/></g><path opacity=".1" d="M436.996 431.122c-8.737 5.051-22.894 5.051-31.595 0-8.737-5.05-8.737-13.198 0-18.249 8.738-5.05 22.894-5.05 31.595 0 8.738 5.051 8.738 13.199 0 18.249Z" fill="#000"/><path d="M414.471 341.181c0-1.143.147-2.212.369-3.133-4.793-1.291-8.332 1.696-8.332 7.705 0 7.152 5.013 15.816 11.207 19.392 5.198 2.986 9.549 1.438 10.802-3.355-.921-.258-1.88-.664-2.875-1.217-6.157-3.576-11.171-12.239-11.171-19.392Z" fill="url(#i)"/><path d="M425.641 321.715c-5.493-3.17-10.507-3.465-14.341-1.401h-.037c-.332.185-.664.406-.996.627l-5.198 3.171c3.576-1.18 7.927-.59 12.645 2.138 11.982 6.931 21.715 24.885 21.715 40.111 0 15.227-21.715 38.01-21.715 38.01l7.927-4.571s21.715-22.821 21.715-38.01c.036-15.189-9.696-33.144-21.715-40.075Z" fill="url(#j)"/><path d="M396 341.292c0 15.226 21.715 63.116 21.715 63.116s21.714-22.82 21.714-38.009c0-15.227-9.733-33.181-21.714-40.112-4.719-2.728-9.07-3.318-12.646-2.138-5.493 1.806-9.069 7.926-9.069 17.143Zm21.715 23.853c-6.194-3.576-11.171-12.24-11.171-19.392 0-5.972 3.539-8.996 8.332-7.705.922.258 1.88.663 2.876 1.216 6.193 3.577 11.207 12.24 11.207 19.392 0 1.143-.147 2.212-.369 3.134-1.327 4.793-5.677 6.341-10.875 3.355Z" fill="url(#k)"/><g clip-path="url(#l)"><path d="M156.145 193.758c2.952-12.074 9.223-21.107 17.531-26.671l-1.364-.545 8.539-3.203c.361-.135.722-.286 1.084-.406l.181-.067c12.969-4.555 29.014-2.382 44.943 7.592 31.219 19.56 50.1 61.705 42.148 94.132-3.537 14.435-11.793 24.501-22.614 29.521l.015.002-.075.021a36.847 36.847 0 0 1-4.774 1.825l-8.779 3.354-.014-1.693c-10.719.843-22.738-2.247-34.673-9.73-31.219-19.56-50.085-61.703-42.148-94.132Z" fill="url(#m)"/><path d="M146.326 197.448c-7.937 32.428 10.929 74.572 42.148 94.131 31.219 19.56 62.977 9.129 70.914-23.3 7.937-32.428-10.929-74.572-42.148-94.131-31.219-19.56-62.978-9.129-70.914 23.3Z" fill="url(#n)"/><path d="M153.465 202.288c-6.826 27.897 9.409 64.164 36.27 80.986 26.861 16.822 54.175 7.848 61.016-20.047 6.826-27.898-9.409-64.164-36.27-80.986-26.861-16.823-54.19-7.851-61.016 20.047Z" fill="url(#o)"/><path d="M153.465 202.288c-6.826 27.897 9.409 64.164 36.27 80.986 26.861 16.822 54.175 7.848 61.016-20.047 6.826-27.898-9.409-64.164-36.27-80.986-26.861-16.823-54.19-7.851-61.016 20.047Z" fill="url(#p)"/><path opacity=".4" d="M230.657 196.018c-6.06-7.856-19.752-17.284-29.179-19.977l-2.694 54.095 31.873-34.118Z" fill="#E85B6B"/><path d="M194.947 281.522c-26.861-16.837-43.095-53.088-36.255-80.999 3.129-12.752 10.534-21.544 20.228-25.722-12.226 3.007-21.786 12.52-25.455 27.487-6.826 27.897 9.409 64.164 36.27 80.986 14.577 9.141 29.288 10.651 40.788 5.69-10.583 2.598-23.125.353-35.576-7.442Z" fill="#BCBCBC"/><path d="m221.497 203.291-25.854 28.608c-.284.328-.235.852.116 1.203.35.336.864.358 1.148.045l25.336-29.102c.285-.329.372-.728.098-.993-.304-.269-.709.089-.844.239Z" fill="url(#q)" stroke="url(#r)" stroke-width="1.525" stroke-miterlimit="10"/><path d="m200.905 203.049-1.857 27.683c-.028.377.278.752.656.833.378.08.709-.166.721-.545l1.297-27.788c.028-.377-.111-.73-.414-.786-.317-.041-.389.437-.403.603Z" fill="url(#s)" stroke="url(#t)" stroke-width="1.525" stroke-miterlimit="10"/><path d="m202.026 185.004-.025-3.035c-.008-.93.638-1.455 1.456-1.164.803.288 1.476 1.291 1.483 2.221l.025 3.036c.008.93-.637 1.455-1.456 1.164-.818-.291-1.475-1.291-1.483-2.222Zm2.446 99.342c.803.288 1.464-.234 1.456-1.165l-.025-3.035c-.007-.93-.68-1.933-1.483-2.222-.803-.288-1.464.234-1.456 1.165l.025 3.035c.007.93.665 1.931 1.483 2.222Zm18.738-83.937c.701.717 1.608.775 1.995.11l1.297-2.16c.402-.664.151-1.778-.565-2.513-.7-.716-1.607-.775-1.994-.11l-1.297 2.161c-.387.665-.136 1.795.564 2.512Zm-41.249 68.876c.701.717 1.608.775 1.995.11l1.297-2.161c.402-.663.151-1.777-.565-2.512-.7-.717-1.607-.775-1.995-.11l-1.296 2.161c-.387.68-.136 1.795.564 2.512Zm55.809-47.076c.416.953 1.312 1.559 2.005 1.345l2.261-.692c.693-.214.927-1.158.511-2.112-.416-.953-1.312-1.559-2.005-1.346l-2.275.691c-.678.216-.912 1.16-.497 2.114Zm-72.418 22.187c.415.954 1.312 1.559 2.005 1.346l2.26-.693c.693-.213.927-1.158.511-2.111-.415-.954-1.311-1.56-2.005-1.346l-2.26.693c-.693.213-.927 1.157-.511 2.111Zm77.907 2.395c.008.93.681 1.933 1.484 2.222l2.636.956c.803.289 1.464-.234 1.456-1.164-.008-.93-.681-1.933-1.484-2.222l-2.636-.956c-.818-.291-1.463.234-1.456 1.164Zm-84.18-30.448c.008.931.681 1.934 1.484 2.222l2.636.957c.803.288 1.463-.234 1.456-1.165-.008-.93-.681-1.933-1.484-2.221l-2.636-.957c-.803-.288-1.464.219-1.456 1.164Zm79.139 51.222c-.402.663-.152 1.777.564 2.512l2.301 2.344c.7.717 1.607.775 1.995.11.402-.663.151-1.778-.565-2.512l-2.3-2.344c-.701-.732-1.593-.774-1.995-.11Zm-73.382-74.933c-.402.663-.151 1.778.565 2.512l2.3 2.345c.701.717 1.608.775 1.995.11.403-.663.152-1.778-.564-2.512l-2.301-2.344c-.7-.733-1.592-.774-1.995-.111Zm59.155 86.315c-.693.213-.927 1.158-.512 2.111l1.34 3.117c.416.954 1.312 1.559 2.005 1.346.693-.213.927-1.158.512-2.111l-1.34-3.117c-.401-.952-1.297-1.558-2.005-1.346Zm-42.916-99.322c-.693.214-.927 1.158-.512 2.112l1.34 3.117c.416.953 1.312 1.559 2.005 1.345.693-.213.927-1.157.512-2.111l-1.34-3.117c-.416-.969-1.312-1.559-2.005-1.346Z" fill="url(#u)"/><path d="M214.566 181.777c-22.579-14.147-45.465-10.155-56.396 7.904 4.189 27.086 24.468 55.477 53.366 71.116 12.457 6.744 24.994 10.265 36.595 10.857a45.116 45.116 0 0 0 2.925-8.398c6.868-28.068-9.466-64.554-36.49-81.479Z" fill="url(#v)"/></g><defs><linearGradient id="a" x1="212.474" y1="342.752" x2="81.389" y2="256.559" gradientUnits="userSpaceOnUse"><stop stop-color="#FEFEFE"/><stop offset="1" stop-color="#FEFEFE" stop-opacity="0"/></linearGradient><linearGradient id="b" x1="304.426" y1="129.611" x2="240.021" y2="129.611" gradientUnits="userSpaceOnUse"><stop stop-color="#021290"/><stop offset="1" stop-color="#190158"/></linearGradient><linearGradient id="c" x1="293.634" y1="397.634" x2="379.704" y2="429.141" gradientUnits="userSpaceOnUse"><stop stop-color="#E02D7B"/><stop offset=".319" stop-color="#E6506F"/><stop offset=".771" stop-color="#EE7C5F"/><stop offset="1" stop-color="#F18D59"/></linearGradient><linearGradient id="d" x1="217.56" y1="341.282" x2="389.767" y2="416.315" gradientUnits="userSpaceOnUse"><stop stop-color="#E02D7B"/><stop offset=".319" stop-color="#E6506F"/><stop offset=".771" stop-color="#EE7C5F"/><stop offset="1" stop-color="#F18D59"/></linearGradient><linearGradient id="e" x1="186.168" y1="367.883" x2="473.179" y2="440.456" gradientUnits="userSpaceOnUse"><stop stop-color="#E02D7B"/><stop offset=".319" stop-color="#E6506F"/><stop offset=".771" stop-color="#EE7C5F"/><stop offset="1" stop-color="#F18D59"/></linearGradient><linearGradient id="i" x1="388.751" y1="359.884" x2="499.741" y2="330.523" gradientUnits="userSpaceOnUse"><stop stop-color="#E02D7B"/><stop offset=".319" stop-color="#E6506F"/><stop offset=".771" stop-color="#EE7C5F"/><stop offset="1" stop-color="#F18D59"/></linearGradient><linearGradient id="j" x1="375.177" y1="376.445" x2="529.462" y2="320.931" gradientUnits="userSpaceOnUse"><stop stop-color="#E02D7B"/><stop offset=".319" stop-color="#E6506F"/><stop offset=".771" stop-color="#EE7C5F"/><stop offset="1" stop-color="#F18D59"/></linearGradient><linearGradient id="k" x1="350.855" y1="388.293" x2="445.3" y2="350.803" gradientUnits="userSpaceOnUse"><stop stop-color="#E02D7B"/><stop offset=".319" stop-color="#E6506F"/><stop offset=".771" stop-color="#EE7C5F"/><stop offset="1" stop-color="#F18D59"/></linearGradient><linearGradient id="m" x1="154.431" y1="221.858" x2="270.8" y2="220.903" gradientUnits="userSpaceOnUse"><stop stop-color="#E02D7B"/><stop offset=".21" stop-color="#E02F78"/><stop offset=".39" stop-color="#E2376D"/><stop offset=".559" stop-color="#E5435B"/><stop offset=".721" stop-color="#E85443"/><stop offset=".877" stop-color="#ED6A23"/><stop offset="1" stop-color="#F17F04"/></linearGradient><linearGradient id="n" x1="253.07" y1="214.023" x2="153.304" y2="261.307" gradientUnits="userSpaceOnUse"><stop stop-color="#E02D7B"/><stop offset=".21" stop-color="#E02F78"/><stop offset=".39" stop-color="#E2376D"/><stop offset=".559" stop-color="#E5435B"/><stop offset=".721" stop-color="#E85443"/><stop offset=".877" stop-color="#ED6A23"/><stop offset="1" stop-color="#F17F04"/></linearGradient><linearGradient id="o" x1="167.839" y1="263.056" x2="236.352" y2="202.472" gradientUnits="userSpaceOnUse"><stop stop-color="#7AA9F2"/><stop offset=".203" stop-color="#90BBF6"/><stop offset=".52" stop-color="#ACD3FB"/><stop offset=".797" stop-color="#BEE2FE"/><stop offset="1" stop-color="#C4E7FF"/></linearGradient><linearGradient id="p" x1="167.839" y1="263.056" x2="236.352" y2="202.472" gradientUnits="userSpaceOnUse"><stop offset="0" stop-color="#B8B8B8"/><stop offset=".174" stop-color="#CACACA"/><stop offset=".503" stop-color="#E6E6E6"/><stop offset=".789" stop-color="#F8F8F8"/><stop offset="1" stop-color="#FEFEFE"/></linearGradient><linearGradient id="q" x1="224.509" y1="218.166" x2="194.08" y2="222.286" gradientUnits="userSpaceOnUse"><stop offset="0" stop-color="#231F20"/><stop offset=".398" stop-color="#2C292A"/><stop offset="1" stop-color="#404041"/></linearGradient><linearGradient id="r" x1="195.673" y1="215.481" x2="222.482" y2="217.038" gradientUnits="userSpaceOnUse"><stop offset="0" stop-color="#231F20"/><stop offset=".398" stop-color="#2C292A"/><stop offset="1" stop-color="#404041"/></linearGradient><linearGradient id="s" x1="193.54" y1="209.145" x2="207.502" y2="225.087" gradientUnits="userSpaceOnUse"><stop offset="0" stop-color="#231F20"/><stop offset=".398" stop-color="#2C292A"/><stop offset="1" stop-color="#404041"/></linearGradient><linearGradient id="t" x1="198.366" y1="216.75" x2="202.41" y2="216.734" gradientUnits="userSpaceOnUse"><stop offset="0" stop-color="#231F20"/><stop offset=".398" stop-color="#2C292A"/><stop offset="1" stop-color="#404041"/></linearGradient><linearGradient id="u" x1="159.17" y1="226.676" x2="248.638" y2="225.942" gradientUnits="userSpaceOnUse"><stop stop-color="#992053"/><stop offset=".178" stop-color="#B02753"/><stop offset=".544" stop-color="#DB3354"/><stop offset=".83" stop-color="#F53A54"/><stop offset="1" stop-color="#FF3D54"/></linearGradient><linearGradient id="v" x1="171.319" y1="257.713" x2="246.152" y2="191.542" gradientUnits="userSpaceOnUse"><stop stop-color="#fff"/><stop offset=".045" stop-color="#fff" stop-opacity=".955"/><stop offset="1" stop-color="#fff" stop-opacity="0"/></linearGradient><clipPath id="f"><path fill="#fff" transform="translate(317.418 171.488)" d="M0 0h73.892v157.646H0z"/></clipPath><clipPath id="g"><path fill="#fff" transform="translate(307.093 201.117)" d="M0 0h94.274v125.726H0z"/></clipPath><clipPath id="h"><path fill="#fff" transform="translate(146 358)" d="M0 0h38.158v87.989H0z"/></clipPath><clipPath id="l"><path fill="#fff" transform="matrix(.99145 .13053 .0082 .99997 144.015 153.37)" d="M0 0h127.455v138.681H0z"/></clipPath></defs></svg>