<svg width="1428" height="1067" fill="none" xmlns="http://www.w3.org/2000/svg"><path opacity=".06" d="M515.219 695.776c-23.189 5.03-87.484-15.17-143.492-45.082-56.176-29.964-82.783-58.19-59.595-63.221 23.188-5.03 87.484 15.17 143.492 45.082 56.176 29.964 82.783 58.19 59.595 63.221Z" fill="#000"/><g opacity=".4" clip-path="url(#a)"><path opacity=".1" d="M283.455 854 241 829.444l42.455-24.556L326 829.444 283.455 854Z" fill="#000"/><path d="m283.455 834.445-5.44-3.215v-52.326l5.44 3.214v52.327ZM288.985 831.23l-5.53 3.215v-52.327l5.53-3.214v52.326Z" fill="#B8B8B8"/><path d="m283.455 819.265-37.639-21.788L283.455 658v161.265Z" fill="#D1D1D1"/><path d="m321.184 797.477-37.728 21.788V658l37.728 139.477Z" fill="#B8B8B8"/></g><g opacity=".3"><path d="M1118.12 943v87l-42.12-24.95 42.12-62.05Z" fill="#D1D1D1"/><path d="m1118.12 1030 41.88-25.19-41.88-61.81v87Z" fill="#B8B8B8"/></g><path opacity=".1" d="M1016.32 922.759c-19.462 11.251-50.998 11.251-70.379 0-19.463-11.251-19.463-29.4 0-40.651 19.463-11.251 50.999-11.251 70.379 0 19.46 11.251 19.46 29.4 0 40.651Z" fill="#000"/><path d="M966.145 722.41c0-2.545.328-4.927.821-6.98-10.676-2.874-18.56 3.778-18.56 17.164 0 15.932 11.169 35.231 24.966 43.197 11.579 6.652 21.27 3.202 24.062-7.474-2.053-.574-4.189-1.478-6.406-2.71-13.715-7.966-24.883-27.265-24.883-43.197Z" fill="url(#b)"/><path d="M991.027 679.049c-12.236-7.063-23.405-7.72-31.946-3.121h-.082c-.739.411-1.478.903-2.217 1.396l-11.58 7.063c7.966-2.628 17.657-1.314 28.169 4.763 26.689 15.439 48.369 55.433 48.369 89.35 0 33.917-48.369 84.67-48.369 84.67l17.656-10.184s48.373-50.834 48.373-84.669c.08-33.835-21.6-73.829-48.373-89.268Z" fill="url(#c)"/><path d="M925 722.657c0 33.917 48.371 140.595 48.371 140.595s48.369-50.834 48.369-84.669c0-33.917-21.68-73.911-48.369-89.35-10.512-6.078-20.203-7.392-28.169-4.764C932.966 688.493 925 702.126 925 722.657Zm48.371 53.134c-13.797-7.966-24.884-27.265-24.884-43.197 0-13.304 7.884-20.038 18.56-17.164 2.053.575 4.189 1.478 6.406 2.71 13.797 7.966 24.965 27.265 24.965 43.197 0 2.546-.328 4.927-.821 6.98-2.956 10.677-12.647 14.126-24.226 7.474Z" fill="url(#d)"/><g clip-path="url(#e)"><path d="M320.019 395.967c6.576-26.897 20.544-47.017 39.051-59.412l-3.038-1.214 19.021-7.135c.805-.301 1.61-.636 2.415-.904l.403-.15c28.889-10.146 64.632-5.305 100.113 16.913 69.542 43.57 111.601 137.451 93.887 209.684-7.879 32.155-26.27 54.577-50.373 65.76l.034.005-.168.046a82.136 82.136 0 0 1-10.634 4.064l-19.556 7.471-.031-3.771c-23.876 1.88-50.651-5.005-77.237-21.674-69.542-43.57-111.567-137.446-93.887-209.683Z" fill="url(#f)"/><path d="M298.146 404.185c-17.679 72.237 24.346 166.114 93.888 209.684 69.542 43.569 140.286 20.335 157.965-51.902 17.68-72.237-24.346-166.114-93.887-209.683-69.542-43.57-140.286-20.336-157.966 51.901Z" fill="url(#g)"/><path d="M314.05 414.967c-15.205 62.144 20.959 142.929 80.793 180.401 59.834 37.473 120.678 17.483 135.916-44.656 15.205-62.144-20.958-142.929-80.793-180.401-59.834-37.473-120.711-17.487-135.916 44.656Z" fill="url(#h)"/><path d="M314.05 414.967c-15.205 62.144 20.959 142.929 80.793 180.401 59.834 37.473 120.678 17.483 135.916-44.656 15.205-62.144-20.958-142.929-80.793-180.401-59.834-37.473-120.711-17.487-135.916 44.656Z" fill="url(#i)"/><path opacity=".4" d="M486 401c-13.5-17.5-44-38.5-65-44.5L415 477l71-76Z" fill="#E85B6B"/><path d="M406.454 591.466c-59.835-37.506-95.998-118.257-80.76-180.43 6.968-28.406 23.464-47.99 45.059-57.297-27.236 6.698-48.53 27.89-56.703 61.228-15.205 62.144 20.959 142.929 80.793 180.401 32.471 20.362 65.24 23.726 90.858 12.674-23.575 5.789-51.512.787-79.247-16.576Z" fill="#BCBCBC"/><path d="m465.595 417.202-57.591 63.725c-.633.731-.523 1.899.258 2.681.78.747 1.924.796 2.558.099l56.438-64.827c.633-.731.828-1.621.217-2.211-.678-.598-1.58.199-1.88.533Z" fill="url(#j)" stroke="url(#k)" stroke-width="3.398" stroke-miterlimit="10"/><path d="m419.725 416.662-4.137 61.666c-.061.84.619 1.676 1.462 1.855.842.179 1.578-.369 1.605-1.214l2.891-61.898c.06-.84-.249-1.628-.923-1.75-.707-.094-.867.971-.898 1.341Z" fill="url(#l)" stroke="url(#m)" stroke-width="3.398" stroke-miterlimit="10"/><path d="m422.222 376.467-.055-6.761c-.017-2.073 1.42-3.241 3.243-2.594 1.788.643 3.287 2.877 3.304 4.949l.056 6.761c.017 2.073-1.421 3.241-3.243 2.594-1.823-.647-3.288-2.877-3.305-4.949Zm5.45 221.289c1.788.643 3.259-.521 3.242-2.594l-.055-6.761c-.017-2.073-1.516-4.306-3.305-4.949-1.788-.643-3.259.521-3.242 2.594l.055 6.761c.017 2.072 1.482 4.302 3.305 4.949Zm41.74-186.975c1.561 1.597 3.581 1.728 4.444.246l2.888-4.813c.896-1.477.337-3.96-1.258-5.595-1.561-1.597-3.581-1.728-4.443-.246l-2.888 4.813c-.863 1.481-.304 3.998 1.257 5.595Zm-91.885 153.425c1.561 1.597 3.581 1.728 4.444.246l2.888-4.812c.896-1.478.338-3.961-1.257-5.596-1.561-1.597-3.581-1.728-4.444-.246l-2.888 4.813c-.863 1.515-.304 3.998 1.257 5.595Zm124.318-104.864c.926 2.124 2.922 3.473 4.466 2.998l5.035-1.543c1.544-.476 2.065-2.58 1.14-4.704-.926-2.124-2.923-3.473-4.467-2.998l-5.068 1.539c-1.511.48-2.032 2.584-1.106 4.708Zm-161.317 49.424c.926 2.124 2.923 3.473 4.467 2.998l5.035-1.544c1.544-.475 2.065-2.579 1.139-4.703-.926-2.124-2.923-3.473-4.467-2.998l-5.035 1.544c-1.544.475-2.065 2.579-1.139 4.703Zm173.544 5.335c.017 2.072 1.516 4.306 3.304 4.949l5.873 2.13c1.789.643 3.26-.521 3.243-2.593-.017-2.073-1.516-4.307-3.305-4.949l-5.872-2.131c-1.823-.647-3.26.521-3.243 2.594Zm-187.516-67.824c.017 2.072 1.516 4.306 3.304 4.949l5.873 2.131c1.789.642 3.26-.522 3.243-2.594-.017-2.073-1.516-4.306-3.305-4.949l-5.873-2.131c-1.788-.643-3.26.487-3.242 2.594Zm176.286 114.098c-.896 1.477-.338 3.96 1.257 5.596l5.124 5.222c1.561 1.597 3.582 1.727 4.444.246.897-1.477.338-3.961-1.257-5.596l-5.124-5.223c-1.561-1.631-3.547-1.722-4.444-.245ZM339.381 393.459c-.897 1.477-.338 3.96 1.257 5.596l5.124 5.222c1.561 1.597 3.581 1.727 4.444.246.896-1.477.337-3.961-1.258-5.596l-5.124-5.223c-1.561-1.631-3.547-1.722-4.443-.245ZM471.15 585.73c-1.544.475-2.065 2.579-1.139 4.703l2.984 6.943c.926 2.124 2.923 3.473 4.467 2.998 1.544-.476 2.065-2.579 1.139-4.703l-2.985-6.944c-.892-2.12-2.888-3.468-4.466-2.997Zm-95.598-221.245c-1.544.476-2.065 2.579-1.139 4.704l2.985 6.943c.926 2.124 2.922 3.473 4.466 2.997 1.544-.475 2.065-2.579 1.139-4.703l-2.984-6.943c-.927-2.158-2.923-3.473-4.467-2.998Z" fill="url(#n)"/><path d="M449.933 370.34c-49.992-31.323-100.664-22.484-124.866 17.501 9.274 59.97 54.174 122.831 118.158 157.456 27.581 14.933 55.339 22.728 81.025 24.039 2.645-5.693 4.849-11.885 6.476-18.595 15.205-62.143-20.959-142.928-80.793-180.401Z" fill="url(#o)"/></g><path d="M903.5 1067h122L248.457 620.84l-55.055 31.737L903.5 1067Z" fill="url(#p)"/><path d="M213.729 340.712c-42.388 12.96-64.434-15.555-96.029-6.013-11.183 3.394-99.85 23.036-106.913-19.262-1.281 4.457-1.765 8.764-1.242 12.585 6.28 43.161 95.833 23.246 107.076 19.822 31.596-9.542 53.641 18.972 96.029 6.013 22.156-6.753 27.934-19.954 25.51-31.997-2.931 7.627-10.302 14.533-24.431 18.852Z" fill="#D1D1D1"/><path d="M216.772 298.728c-20.487-7.001 2.727-44.073-45.021-54.442s-58.203 59.481-96.46 41.499c-31.722-14.916-58.31 9.288-64.596 30.877 7.053 42.166 95.533 22.57 106.743 19.202 31.545-9.512 53.556 18.913 95.876 5.994 14.062-4.32 21.466-11.189 24.422-18.732-2.199-11.024-11.147-21.035-20.964-24.398ZM1112.78 806.151 831.399 968.559l47.679 27.49 281.382-162.408-47.68-27.49Z" fill="#FEFEFE"/><path opacity=".1" d="m778.206 565.297-158.459-91.485 158.459-91.484 158.533 91.484-158.533 91.485Z" fill="#000"/><path d="m883.55 477.91-107.8 62.207V438.724l107.8-62.206V477.91Z" fill="#B6B6B6"/><path d="M775.748 540.117 667.949 477.91V376.518l107.799 62.206v101.393Z" fill="#D1D1D1"/><path d="m775.748 438.724-107.799-62.206 107.799-62.281 107.8 62.281-107.8 62.206Z" fill="#FEFEFE"/><path d="m859.706 375.995-83.96 48.499v-283.17l83.96-48.499v283.17Z" fill="#B6B6B6"/><path d="m775.748 424.494-84.035-48.499V92.825l84.035 48.499v283.17Z" fill="#D1D1D1"/><path d="m775.748 141.324-84.035-48.499 84.035-48.499 83.96 48.5-83.96 48.498Z" fill="#FEFEFE"/><path d="m829.539 93.273-53.789 31.066V62.132l53.789-31.066v62.207Z" fill="#B8B8B8"/><path d="m775.751 124.339-53.863-31.066V31.066l53.863 31.066v62.207Z" fill="#D1D1D1"/><path d="m775.751 62.132-53.863-31.066L775.751 0l53.788 31.066-53.788 31.066Z" fill="#FEFEFE"/><path d="m775.748 8.717-38.739 22.35 38.739 22.35 38.665-22.35-38.665-22.35Z" fill="#D1D1D1"/><path d="m811.433 32.78 2.98-1.714-38.665-22.35-38.739 22.35 2.98 1.714 35.759-20.562 35.685 20.562ZM775.748 504.282l-107.799-62.206v2.682l107.799 62.206 107.8-62.206v-2.682l-107.8 62.206Z" fill="#7E7E7E"/><path d="m775.748 471.876-107.799-62.282v2.682l107.799 62.281 107.8-62.281v-2.682l-107.8 62.282Z" fill="#7E7E7E"/><path d="m706.911 149.593-4.768-2.756V124.86l4.768 2.756v21.977ZM720.396 157.416l-4.768-2.756v-21.978l4.768 2.757v21.977ZM733.953 165.164l-4.768-2.757V140.43l4.768 2.756v21.978ZM747.438 172.986l-4.768-2.756v-21.978l4.768 2.757v21.977ZM760.923 180.734l-4.768-2.756V156l4.768 2.757v21.977ZM706.911 200.998l-4.768-2.756v-21.978l4.768 2.757v21.977ZM720.396 208.746l-4.768-2.756v-21.978l4.768 2.757v21.977ZM733.953 216.568l-4.768-2.756v-21.977l4.768 2.756v21.977ZM747.438 224.316l-4.768-2.756v-21.977l4.768 2.756v21.977ZM760.923 232.139l-4.768-2.757v-21.977l4.768 2.757v21.977ZM706.911 252.328l-4.768-2.757v-21.977l4.768 2.757v21.977ZM720.396 260.151l-4.768-2.757v-21.977l4.768 2.756v21.978ZM733.953 267.898l-4.768-2.757v-21.977l4.768 2.757v21.977ZM747.438 275.72l-4.768-2.756v-21.977l4.768 2.756v21.977ZM760.923 283.469l-4.768-2.682v-22.052l4.768 2.757v21.977ZM706.911 303.731l-4.768-2.756v-21.977l4.768 2.756v21.977ZM720.396 311.479l-4.768-2.756v-21.977l4.768 2.756v21.977ZM733.953 319.301l-4.768-2.756v-21.977l4.768 2.756v21.977ZM747.438 327.05l-4.768-2.682v-22.052l4.768 2.756v21.978ZM760.923 334.872l-4.768-2.756v-21.977l4.768 2.756v21.977ZM706.911 355.061l-4.768-2.757v-21.977l4.768 2.757v21.977ZM720.396 362.884l-4.768-2.757V338.15l4.768 2.756v21.978ZM733.953 370.631l-4.768-2.682v-22.052l4.768 2.756v21.978ZM747.438 378.453l-4.768-2.756V353.72l4.768 2.756v21.977ZM760.923 386.275l-4.768-2.756v-21.977l4.768 2.756v21.977ZM844.884 149.593l4.694-2.756V124.86l-4.694 2.756v21.977ZM831.327 157.416l4.768-2.757v-21.977l-4.768 2.757v21.977ZM817.842 165.163l4.768-2.756v-21.978l-4.768 2.757v21.977ZM804.357 172.986l4.768-2.756v-21.978l-4.768 2.757v21.977ZM790.873 180.734l4.767-2.756V156l-4.767 2.757v21.977ZM844.884 200.997l4.694-2.756v-21.977l-4.694 2.756v21.977ZM831.327 208.745l4.768-2.756v-21.977l-4.768 2.756v21.977ZM817.842 216.567l4.768-2.756v-21.977l-4.768 2.756v21.977ZM804.357 224.316l4.768-2.757v-21.977l-4.768 2.756v21.978ZM790.873 232.138l4.767-2.756v-21.977l-4.767 2.756v21.977ZM844.884 252.327l4.694-2.756v-21.977l-4.694 2.756v21.977ZM831.327 260.15l4.768-2.756v-21.977l-4.768 2.756v21.977ZM817.842 267.897l4.768-2.756v-21.977l-4.768 2.756v21.977ZM804.357 275.72l4.768-2.756v-21.977l-4.768 2.756v21.977ZM790.873 283.468l4.767-2.681v-22.052l-4.767 2.756v21.977ZM844.884 303.731l4.694-2.756v-21.977l-4.694 2.756v21.977ZM831.327 311.479l4.768-2.756v-21.977l-4.768 2.756v21.977ZM817.842 319.301l4.768-2.756v-21.977l-4.768 2.756v21.977ZM804.357 327.05l4.768-2.682v-22.052l-4.768 2.756v21.978ZM790.873 334.872l4.767-2.756v-21.977l-4.767 2.756v21.977ZM844.884 355.061l4.694-2.757v-21.977l-4.694 2.756v21.978ZM831.327 362.883l4.768-2.756V338.15l-4.768 2.756v21.977ZM817.842 370.631l4.768-2.682v-22.052l-4.768 2.756v21.978ZM804.357 378.453l4.768-2.756V353.72l-4.768 2.756v21.977ZM790.873 386.275l4.767-2.756v-21.977l-4.767 2.756v21.977Z" fill="#fff"/><path opacity=".1" d="m614.384 633.687 103.107-59.599-133.8-77.181-103.107 59.525 133.8 77.255Z" fill="#000"/><path d="m613.492 353.125 72.413-41.869-94.018-54.235-72.413 41.794 94.018 54.31Z" fill="#FEFEFE"/><path d="m592.559 267.749 77.627 44.774 2.459-1.416-80.086-46.189-59.003 33.674 2.533 1.415 56.47-32.258Z" fill="url(#q)"/><path d="m592.559 267.749 77.627 44.774 2.459-1.416-80.086-46.189-59.003 33.674 2.533 1.415 56.47-32.258Z" fill="#7E7E7E"/><path d="m536.087 300.008 56.471-32.258 77.553 44.773-56.172 32.482-77.852-44.997Z" fill="#D1D1D1"/><path d="m613.492 613.051-94.018-54.309V298.815l94.018 54.31v259.926Z" fill="#DEDEDE"/><path d="m685.906 571.183-72.413 41.868V353.125l72.413-41.868v259.926Z" fill="#B8B8B8"/><path d="m530.125 326.826 1.713.968v36.505l-1.713-.894v-36.579Z" fill="#7E7E7E"/><path d="M547.409 336.809v36.504l-15.571-9.014v-36.505l15.571 9.015Z" fill="#fff"/><path d="m575.643 380.092-13.038 7.599v-18.028l13.038-7.599v18.028Z" fill="#B8B8B8"/><path d="m519.548 347.611-13.037 7.524-.074-17.954 13.037-7.524.074 17.954Z" fill="#7E7E7E"/><path d="m562.607 387.692-57.96-33.45v-18.029l57.96 33.45v18.029Z" fill="#D1D1D1"/><path d="m562.607 367.577-54.384-31.364 11.249-6.556v-2.012l-13.484 7.823-1.341.745 57.96 33.45 1.714-1.043 11.323-6.556-1.788-.969-11.249 6.482Z" fill="#fff"/><path d="m530.125 382.254 1.713.969v36.504l-1.713-.894v-36.579Z" fill="#7E7E7E"/><path d="M547.409 392.237v36.504l-15.571-9.014v-36.504l15.571 9.014Z" fill="#fff"/><path d="m575.643 435.52-13.038 7.599V425.09l13.038-7.598v18.028Z" fill="#B8B8B8"/><path d="m519.548 403.039-13.037 7.524-.074-17.879 13.037-7.599.074 17.954Z" fill="#7E7E7E"/><path d="m562.607 443.12-57.96-33.45v-18.029l57.96 33.45v18.029Z" fill="#D1D1D1"/><path d="m562.607 423.005-54.384-31.364 11.249-6.556v-2.012l-13.484 7.823-1.341.745 57.96 33.45 1.714-1.043 11.323-6.556-1.788-.969-11.249 6.482Z" fill="#fff"/><path d="m530.125 437.681 1.713.968v36.505l-1.713-.894v-36.579Z" fill="#7E7E7E"/><path d="M547.409 447.664v36.579l-15.571-9.089v-36.505l15.571 9.015Z" fill="#fff"/><path d="m575.643 490.947-13.038 7.599v-18.029l13.038-7.599v18.029Z" fill="#B8B8B8"/><path d="m519.548 458.466-13.037 7.524-.074-17.88 13.037-7.599.074 17.955Z" fill="#7E7E7E"/><path d="m562.607 498.546-57.96-33.45v-18.029l57.96 33.45v18.029Z" fill="#D1D1D1"/><path d="m562.607 478.431-54.384-31.364 11.249-6.556V438.5l-13.484 7.822-1.341.745 57.96 33.45 1.714-1.043 11.323-6.481-1.788-1.043-11.249 6.481Z" fill="#fff"/><path d="m530.125 493.107 1.714.968v36.505l-1.714-.894v-36.579Z" fill="#7E7E7E"/><path d="M547.409 503.09v36.579l-15.57-9.089v-36.504l15.57 9.014Z" fill="#fff"/><path d="m575.643 546.448-13.037 7.525v-18.029l13.037-7.524v18.028Z" fill="#B8B8B8"/><path d="m519.549 513.892-13.038 7.525-.074-17.88 13.037-7.599.075 17.954Z" fill="#7E7E7E"/><path d="m562.607 553.973-57.96-33.45v-18.029l57.96 33.45v18.029Z" fill="#D1D1D1"/><path d="m562.608 533.932-54.385-31.438 11.25-6.556v-2.011l-13.485 7.822-1.341.745 57.961 33.45 1.713-1.043 11.324-6.482-1.788-1.043-11.249 6.556Z" fill="#fff"/><path d="m636.287 355.51-1.118.67v24.436l1.118-.671V355.51Z" fill="#7E7E7E"/><path d="M624.74 362.214v24.436l10.43-6.035V356.18l-10.43 6.034Z" fill="#fff"/><path d="m655.955 344.186-1.117.67v24.436l1.117-.671v-24.435Z" fill="#7E7E7E"/><path d="M644.409 350.89v24.436l10.43-6.034v-24.436l-10.43 6.034Z" fill="#fff"/><path d="m675.62 332.862-1.117.596v24.51l1.117-.671v-24.435Z" fill="#7E7E7E"/><path d="M664.074 339.491v24.511l10.43-6.035v-24.51l-10.43 6.034Z" fill="#fff"/><path d="m636.287 410.937-1.118.596v24.51l1.118-.67v-24.436Z" fill="#7E7E7E"/><path d="M624.74 417.567v24.51l10.43-6.034v-24.51l-10.43 6.034Z" fill="#fff"/><path d="m655.955 399.613-1.117.596v24.51l1.117-.67v-24.436Z" fill="#7E7E7E"/><path d="M644.409 406.243v24.436l10.43-5.96v-24.51l-10.43 6.034Z" fill="#fff"/><path d="m675.62 388.214-1.117.671v24.435l1.117-.596v-24.51Z" fill="#7E7E7E"/><path d="M664.074 394.919v24.436l10.43-6.035v-24.435l-10.43 6.034Z" fill="#fff"/><path d="m636.287 466.29-1.118.67v24.436l1.118-.596v-24.51Z" fill="#7E7E7E"/><path d="M624.74 472.994v24.436l10.43-6.035V466.96l-10.43 6.034Z" fill="#fff"/><path d="m655.955 454.965-1.117.671v24.435l1.117-.596v-24.51Z" fill="#7E7E7E"/><path d="M644.409 461.67v24.436l10.43-6.035v-24.435l-10.43 6.034Z" fill="#fff"/><path d="m675.62 443.641-1.117.671v24.436l1.117-.671v-24.436Z" fill="#7E7E7E"/><path d="M664.074 450.346v24.436l10.43-6.035v-24.435l-10.43 6.034Z" fill="#fff"/><path d="m636.287 521.716-1.118.67v24.436l1.118-.67v-24.436Z" fill="#7E7E7E"/><path d="M624.74 528.421v24.435l10.43-6.034v-24.436l-10.43 6.035Z" fill="#fff"/><path d="m655.955 510.392-1.117.596v24.51l1.117-.67v-24.436Z" fill="#7E7E7E"/><path d="M644.409 517.022v24.51l10.43-6.034v-24.51l-10.43 6.034Z" fill="#fff"/><path d="m675.62 499.068-1.117.596v24.51l1.117-.67v-24.436Z" fill="#7E7E7E"/><path d="M664.074 505.698v24.51l10.43-6.034v-24.51l-10.43 6.034Z" fill="#fff"/><path opacity=".1" d="m924.971 643.297-99.531-57.513c-6.481-3.725-5.662-10.281 1.788-14.602l95.88-55.353c7.525-4.321 18.849-4.768 25.33-1.043l99.532 57.439c6.48 3.725 5.66 10.281-1.79 14.602l-95.88 55.352c-7.524 4.396-18.848 4.843-25.329 1.118Z" fill="#000"/><path d="m928.621 283.841-68.39-39.485c-4.47-2.607-3.874-7.077 1.266-10.057l65.857-37.994c5.141-2.98 12.963-3.278 17.433-.745l68.393 39.484c4.47 2.607 3.87 7.077-1.27 10.057l-65.856 37.995c-5.141 2.98-12.963 3.278-17.433.745Z" fill="#FEFEFE"/><path d="m879.751 240.705 49.915-28.831c3.874-2.235 9.834-2.533 13.186-.521l51.777 29.874c.447.298.819.521 1.117.894 1.788-2.012 1.49-4.396-1.117-5.96l-51.777-29.874c-3.352-1.937-9.312-1.714-13.186.521l-49.915 28.831c-3.352 1.937-4.171 4.768-2.086 6.78a6.005 6.005 0 0 1 2.086-1.714Z" fill="#7E7E7E"/><path d="m878.784 243.239 51.777 29.874c3.352 1.937 9.312 1.713 13.186-.522l49.914-28.831a8.26 8.26 0 0 0 2.086-1.713 7.319 7.319 0 0 0-1.117-.894l-51.777-29.874c-3.352-1.937-9.312-1.714-13.186.521l-49.915 28.831a8.277 8.277 0 0 0-2.085 1.714c.297.298.67.596 1.117.894Z" fill="#D1D1D1"/><path d="M1016.16 239.738c-.15 1.862-1.57 3.799-4.25 5.363l-65.858 37.995c-2.682 1.564-6.034 2.384-9.312 2.458h-.075v337.257c3.278-.075 6.705-.894 9.387-2.459l66.078-38.143c2.24-1.267 3.58-2.831 4.03-4.47V239.738Z" fill="#B8B8B8"/><path d="M860.306 244.356c-2.16-1.266-3.054-2.905-2.98-4.618h-.074v338.597c.372 1.192 1.266 2.235 2.756 3.129l68.539 39.559c2.161 1.266 5.066 1.788 8.121 1.713V285.554h-.075c-2.98.075-5.885-.447-8.046-1.713l-68.241-39.485Z" fill="#D1D1D1"/><path d="M946.055 332.488c-5.811 3.352-12.069 3.576-17.433.745l-71.37-41.198v1.937l71.37 41.198c4.47 2.607 12.218 2.235 17.433-.745l70.105-40.527v-1.863l-70.105 40.453ZM946.055 383.147c-5.811 3.353-12.069 3.576-17.433.745l-71.37-41.197v1.937l71.37 41.197c4.47 2.608 12.218 2.235 17.433-.745l70.105-40.527v-1.862l-70.105 40.452ZM946.055 433.806c-5.811 3.353-12.069 3.576-17.433.745l-71.37-41.198v1.937l71.37 41.198c4.47 2.608 12.218 2.235 17.433-.745l70.105-40.527v-1.863l-70.105 40.453ZM946.055 484.466c-5.811 3.352-12.069 3.576-17.433.745l-71.37-41.198v1.937l71.37 41.198c4.47 2.607 12.218 2.235 17.433-.745l70.105-40.528v-1.862l-70.105 40.453ZM946.055 535.124c-5.811 3.353-12.069 3.576-17.433.745l-71.37-41.197v1.936l71.37 41.198c4.47 2.608 12.218 2.235 17.433-.745l70.105-40.527v-1.862l-70.105 40.452Z" fill="#7E7E7E"/><path opacity=".1" d="M1427.76 832.226 1169.7 703.418l-89.03-80.533-199.803 116.218 112.493 66.155 81.87-47.307 242.57 140.058 109.96-65.783Z" fill="#000"/><path d="m1075.61 739.4-79.419 45.817v-91.633l79.419-45.817V739.4Z" fill="#B8B8B8"/><path d="M996.192 785.217 916.851 739.4v-91.633l79.341 45.817v91.633ZM1313.78 876.925 1075.61 739.4v-91.633l238.17 137.45v91.708Z" fill="#D1D1D1"/><path d="m1313.78 785.218-238.17-137.451 79.41-45.891 238.1 137.525-79.34 45.817Z" fill="#FEFEFE"/><path d="m1393.12 831.034-79.34 45.891v-91.708l79.34-45.816v91.633Z" fill="#B8B8B8"/><path d="m996.192 693.584-79.341-45.817 158.759-91.708 79.41 45.817-158.828 91.708ZM1313.63 817.178l65.48-36.355v-11.92l-65.48 36.355v11.92Z" fill="#FEFEFE"/><path d="M1376.21 770.542v11.92l-62.58 34.716v3.353l65.48-36.356v-15.272l-2.9 1.639Z" fill="#7E7E7E"/><path d="m1313.63 805.258-221.34-127.765v11.919l221.34 127.766v-11.92Z" fill="#FEFEFE"/><path d="M1095.12 691.051v-11.919l-2.83-1.639v15.272l221.34 127.765v-3.352l-218.51-126.127Z" fill="#7E7E7E"/><path d="m1313.63 851.373 65.48-36.356v-11.919l-65.48 36.43v11.845Z" fill="#FEFEFE"/><path d="M1376.21 804.737v11.919l-62.58 34.717v3.352l65.48-36.355v-15.272l-2.9 1.639Z" fill="#7E7E7E"/><path d="m1313.63 839.528-221.34-127.84v11.919l221.34 127.766v-11.845Z" fill="#FEFEFE"/><path d="M1095.12 725.246v-11.92l-2.83-1.638v15.272l221.34 127.765v-3.352l-218.51-126.127Z" fill="#7E7E7E"/><path d="m1052.51 752.736-31.81 18.327v-67.347l31.81-18.327v67.347Z" fill="#FEFEFE"/><path d="M1047.45 688.294v67.347l5.06-2.905v-67.347l-5.06 2.905ZM928.993 682.037v35.759l4.023 2.31v-35.76l-4.023-2.309Z" fill="#7E7E7E"/><path d="m981.962 712.582-48.946-28.235v35.759l48.946 28.235v-35.759Z" fill="#FEFEFE"/><path d="m996.192 623.108-32.63 18.923 32.63 18.848 32.708-18.848-32.708-18.923Z" fill="#D1D1D1"/><path d="M1028.9 642.031v4.097l-32.709 18.849v-4.098l32.709-18.848Z" fill="#B8B8B8"/><path d="M963.562 642.031v4.097l32.63 18.849v-4.098l-32.63-18.848Z" fill="#DFDFDF"/><path d="m1157.03 616.254-54.68 31.513 210.24 121.358 53.79-32.034-209.35-120.837Z" fill="#D1D1D1"/><path d="m1361.31 739.102 5.07-2.011-209.35-120.837-54.68 31.513 4.25 2.458 50.43-29.129 204.28 118.006Z" fill="#7E7E7E"/><path d="M992.318 899.27c-6.184-3.576-16.166-3.576-22.275 0-5.588 3.278-6.035 8.344-1.416 11.846l-127.992 72.369-328.058-195.508-2.309 4.023 329.25 196.104 1.117.671L973.768 913.5c5.959 1.862 13.484 1.49 18.55-1.416 6.109-3.501 6.109-9.312 0-12.814Z" fill="#F40494"/><path opacity=".1" d="M769.936 910.226s.894 42.315-62.579 52.671c-63.473 10.355-203.679-80.012-216.27-87.536-12.59-7.525-24.808-37.25-23.318-55.8 1.565-18.55 28.012-4.246 28.012-4.246l274.155 94.911Z" fill="#000"/><path d="m693.723 925.722 5.439 20.189c.223 1.863-.075 3.576 3.799 2.98 8.419-1.341 30.47-5.587 46.636-16.911 7.376-5.215 12.069-9.015 15.049-11.697a16.177 16.177 0 0 0 5.29-11.994v-23.765l-64.218 23.765c-1.043.373-1.863 1.192-2.31 2.235l-7.673 11.398c-.373.596-2.086 3.055-2.012 3.8Z" fill="url(#r)"/><path d="m610.361 906.725 39.708-10.952-41.049-20.487-.671 26.745 2.012 4.694Z" fill="#950B63"/><path d="M654.538 921.475c0-11.92-8.344-26.448-18.699-32.407-5.215-2.98-9.909-3.278-13.261-1.267l-4.321 2.533 1.415.224c-1.564 2.235-2.458 5.363-2.458 9.312 0 11.92 8.344 26.447 18.699 32.407 3.204 1.862 6.183 2.607 8.791 2.533l-.894 1.862 5.215-2.98c.074 0 .149-.074.223-.149l.224-.149c3.129-2.086 5.066-6.183 5.066-11.919Z" fill="#191919"/><path d="M649.545 924.454c0 11.92-8.343 16.762-18.699 10.802-10.355-5.959-18.699-20.487-18.699-32.407 0-11.919 8.344-16.762 18.699-10.802 10.281 5.96 18.699 20.487 18.699 32.407Z" fill="#323232"/><path d="M642.019 920.134c0 7.151-4.991 10.057-11.175 6.481-6.183-3.576-11.175-12.292-11.175-19.444 0-7.152 4.992-10.058 11.175-6.482 6.184 3.576 11.175 12.293 11.175 19.445Z" fill="#EEEFEF"/><path d="M633.378 915.142c0 1.639-1.192 2.309-2.607 1.49-1.415-.82-2.607-2.831-2.607-4.47 0-1.639 1.117-2.31 2.607-1.49 1.49.819 2.607 2.831 2.607 4.47Z" fill="#323232"/><path d="m484.829 834.684 3.725.149 12.59-13.484-13.186-1.862-4.172 13.484 1.043 1.713Z" fill="#950B63"/><path d="M528.487 856.288c0-11.92-8.344-26.447-18.7-32.407-5.215-2.98-9.908-3.278-13.26-1.266l-4.321 2.533 1.415.223c-1.564 2.235-2.458 5.364-2.458 9.313 0 11.919 8.343 26.447 18.699 32.407 3.203 1.862 6.183 2.607 8.791 2.533l-.894 1.862 5.215-3.054c.074 0 .149-.075.223-.149l.224-.149c3.129-2.012 5.066-6.109 5.066-11.846Z" fill="#191919"/><path d="M523.421 859.194c0 11.92-8.344 16.762-18.699 10.802-10.356-5.959-18.7-20.487-18.7-32.407 0-11.919 8.344-16.762 18.7-10.802 10.355 5.96 18.699 20.487 18.699 32.407Z" fill="#323232"/><path d="M515.971 854.874c0 7.152-4.991 10.057-11.175 6.481-6.183-3.576-11.174-12.292-11.174-19.444 0-7.152 4.991-10.057 11.174-6.482 6.184 3.576 11.175 12.293 11.175 19.445Z" fill="#EEEFEF"/><path d="M507.331 849.882c0 1.639-1.118 2.309-2.608 1.49-1.415-.82-2.607-2.831-2.607-4.47 0-1.639 1.192-2.31 2.607-1.49 1.49.819 2.608 2.831 2.608 4.47Z" fill="#323232"/><path d="m473.058 786.483 69.284-43.88c3.055-1.936 6.407-2.83 9.834-1.639l17.209 6.035s39.261-3.949 70.923 11.994 50.957 41.198 55.427 45.892c4.47 4.693 22.871 25.851 22.871 25.851s49.393 35.983 51.33 53.415c0 .224 0 .373-.149.522-2.607 2.533-30.619 29.203-69.954 39.708-1.863.521-3.8.223-5.439-.745l-61.759-36.207-161.439-86.94 1.862-14.006Z" fill="url(#s)"/><path d="M687.764 911.716c-16.762-16.465-48.499-37.622-62.579-59.376-14.08-21.754-38.516-45.444-68.464-54.384-26.671-7.972-51.553-3.874-53.341-3.576h-.224l-27.267-9.238c-2.309-.745-4.618.894-4.618 3.352V802.5c0 .149 0 .224-.149.298-.745.671-4.619 4.694-3.8 13.187.894 9.386 6.258 12.292 6.258 12.292l11.324 6.481c0-.447.074-.521.074-.894.894-9.834 11.846-14.899 22.127-8.94 10.355 5.96 18.699 20.488 18.699 32.407 0 .298 0 .596-.075.894l74.872 42.986 9.014 5.141c.298.149.745-.075.67-.447-.372-3.874-1.043-18.923 12.218-19.296 15.645-.447 28.086 21.009 29.502 33.823.447 4.246-.149 7.45-.447 9.759a.41.41 0 0 0 .223.373l21.903 12.59c.223.075 10.281 4.917 24.361 6.034.82.075 1.639-.521 1.788-1.415.671-5.066 2.011-22.201-12.069-36.057Z" fill="url(#t)"/><path d="m504.869 801.904 130.15 76.213s-18.402-39.857-45.668-58.706c-25.553-17.656-40.304-21.232-58.035-22.349-14.155-1.043-26.447 4.842-26.447 4.842ZM615.499 827.234l33.301 40.751c1.192 1.49 3.129 2.086 4.917 1.49 8.567-2.756 33.897-12.218 56.321-34.046 1.192-1.192 1.266-3.129.149-4.395l-35.089-40.528c-1.118-1.266-3.055-1.341-4.247-.149-5.438 5.588-21.902 20.264-54.235 32.705-1.639.671-2.235 2.757-1.117 4.172ZM538.693 787.6c-2.905-.447-10.579-1.639-17.433-1.639-.894 0-1.192-1.117-.447-1.639l50.734-31.736c.373-.224.82-.373 1.267-.447 2.458-.224 10.876-.894 16.613-.075.819.149 1.043 1.192.372 1.639l-48.945 33.376c-.671.447-1.416.67-2.161.521Z" fill="#EEEFEF"/><path d="M471.123 802.053v-8.418s10.653 3.278 10.728 9.312c.149 6.109-10.728-.894-10.728-.894Z" fill="#D64883"/><path d="M769.936 892.42v13.038s-4.396 5.513-9.238 4.693c-4.843-.894-2.533-8.94 0-10.355 2.533-1.565 9.238-7.376 9.238-7.376ZM698.789 931.011s11.771-5.29 14.155-2.31c2.905 3.651 2.16 9.387-3.502 11.399-5.662 2.011-8.12 3.129-10.355 2.831-2.235-.298-4.768-.373-6.407-1.416-2.682-1.564-3.203-8.046 0-10.132 1.416-.819 6.109-.372 6.109-.372Z" fill="#EEEFEF"/><path d="m758.838 712.134-101.915-58.109 101.244-59.152 101.915 58.035-101.244 59.226Z" fill="#FEFEFE"/><g clip-path="url(#u)"><path opacity=".1" d="m835.485 733.165-26.196-15.121 22.608-13.058 26.114 15.171-22.526 13.008ZM731.553 674.056l-26.196-15.121 22.608-13.057 26.114 15.17-22.526 13.008Z" fill="#000"/><path d="M821.019 671.451v47.772l14.401 8.322v-47.772l-14.401-8.322Z" fill="#B8B8B8"/><path d="m846.461 721.172-11.042 6.373v-47.772l11.042-6.373v47.772Z" fill="#A2A2A2"/><path d="M717.185 611.506v47.773l14.401 8.306v-47.773l-14.401-8.306Z" fill="#B8B8B8"/><path d="m742.611 661.228-11.026 6.357v-47.772l11.026-6.357v47.772Z" fill="#A2A2A2"/><path d="m850.18 704.233-146.412-84.749V392.452L850.18 477.2v227.033Z" fill="#D1D1D1"/><path d="m835.272 684.082-119.906-69.43-.016-201.705 119.906 69.43.016 201.705Z" fill="#EB242A"/><path d="m719.331 415.24-3.981-2.293v201.721l119.906 69.43v-4.39l-115.925-67.121V415.24Z" fill="#7E7E7E"/><path d="m868.365 693.781-18.185 10.452V477.2l18.185-10.452v227.033Z" fill="#B8B8B8"/><path d="m721.952 382-18.184 10.452L850.18 477.2l18.185-10.452L721.952 382Z" fill="#FEFEFE"/></g><g clip-path="url(#v)" fill="#fff"><path d="M749.803 453.509v42.411l-7.195-4.281v-32.76l-8.643-1.945v-6.598l15.063 2.712.775.461Zm36.323 39.138v7.326c0 3.178-.291 5.746-.874 7.706-.583 1.94-1.424 3.319-2.523 4.138-1.083.809-2.373 1.117-3.872.923-1.499-.194-3.165-.836-4.997-1.926a24.045 24.045 0 0 1-4.097-3.077 23.497 23.497 0 0 1-3.422-4.1 28.094 28.094 0 0 1-2.598-5.063c-.716-1.86-1.266-3.893-1.649-6.097-.383-2.205-.575-4.586-.575-7.144v-7.325c0-3.179.292-5.728.875-7.648.599-1.93 1.44-3.3 2.523-4.11 1.099-.799 2.398-1.092 3.897-.879 1.499.195 3.164.837 4.996 1.926a22.782 22.782 0 0 1 4.072 3.092 22.961 22.961 0 0 1 3.423 4.042c1.016 1.515 1.882 3.202 2.598 5.063.716 1.84 1.266 3.863 1.649 6.067.383 2.186.574 4.548.574 7.086Zm-7.219 4.135v-9.564c0-1.531-.075-2.912-.225-4.145-.133-1.223-.342-2.315-.625-3.278-.283-.983-.633-1.85-1.049-2.601a9.144 9.144 0 0 0-1.424-1.952 8.517 8.517 0 0 0-1.774-1.404c-.816-.486-1.54-.733-2.173-.741-.616.002-1.141.281-1.574.837-.433.537-.766 1.405-.999 2.603-.217 1.189-.325 2.733-.325 4.632v9.564c0 1.531.067 2.917.2 4.159a22.21 22.21 0 0 0 .649 3.381c.3.992.65 1.869 1.05 2.63a9.137 9.137 0 0 0 1.424 1.951 8.845 8.845 0 0 0 1.798 1.419c.8.476 1.508.713 2.124.711.633-.011 1.166-.294 1.599-.851.449-.565.782-1.452.999-2.661.216-1.208.325-2.772.325-4.69Zm12.016-8.345v-2.238c0-1.609.3-2.893.899-3.854.6-.961 1.482-1.492 2.648-1.593 1.166-.101 2.598.353 4.297 1.364 1.749 1.04 3.206 2.305 4.372 3.793 1.182 1.498 2.065 3.079 2.648 4.744.6 1.674.899 3.316.899 4.924v2.238c0 1.57-.299 2.836-.899 3.797-.583.971-1.457 1.507-2.623 1.608-1.166.1-2.607-.359-4.322-1.38-1.732-1.03-3.189-2.295-4.372-3.793-1.166-1.488-2.048-3.069-2.648-4.744-.599-1.674-.899-3.296-.899-4.866Zm4.771.601v2.238c0 .678.109 1.392.325 2.141a7.683 7.683 0 0 0 1.049 2.106 5.899 5.899 0 0 0 1.749 1.593c.716.426 1.299.589 1.749.488.449-.12.783-.416.999-.888.217-.491.325-1.076.325-1.754v-2.238c0-.717-.117-1.446-.35-2.185a6.752 6.752 0 0 0-1.024-2.092 5.502 5.502 0 0 0-1.749-1.622c-.666-.396-1.232-.539-1.699-.429-.466.091-.816.377-1.049.858-.216.472-.325 1.067-.325 1.784Zm12.616 33.551v-2.239c0-1.589.3-2.864.899-3.825.617-.951 1.508-1.477 2.674-1.578 1.182-.091 2.631.374 4.346 1.394 1.732 1.031 3.181 2.29 4.347 3.778 1.166 1.488 2.049 3.07 2.648 4.744.6 1.675.9 3.306.9 4.895v2.239c0 1.589-.3 2.864-.9 3.825-.583.971-1.457 1.507-2.623 1.608-1.166.101-2.606-.359-4.322-1.38-1.732-1.03-3.189-2.294-4.372-3.792-1.182-1.498-2.081-3.09-2.698-4.774-.599-1.674-.899-3.306-.899-4.895Zm4.797.615v2.238c0 .698.133 1.436.399 2.215a8.105 8.105 0 0 0 1.1 2.136c.483.656 1.04 1.172 1.673 1.548.8.476 1.424.663 1.874.563.45-.101.758-.412.924-.933.183-.511.275-1.115.275-1.813v-2.238c0-.698-.117-1.417-.35-2.156a7.18 7.18 0 0 0-1.049-2.107 5.438 5.438 0 0 0-1.724-1.607c-.699-.416-1.282-.569-1.748-.459-.45.101-.791.392-1.025.874-.233.462-.349 1.041-.349 1.739Zm4.896-22.987-17.762 22.513-3.497-4.232 17.762-22.513 3.497 4.232ZM747.371 545.281l4.877 2.902c-.128 1.801-.596 3.19-1.403 4.167-.796.983-1.897 1.465-3.302 1.447-1.395-.012-3.065-.597-5.012-1.755a17.607 17.607 0 0 1-4.079-3.347 20.752 20.752 0 0 1-3.055-4.501 22.878 22.878 0 0 1-1.872-5.33 25.274 25.274 0 0 1-.578-5.882l.032-1.917c.034-2.025.292-3.717.776-5.077.495-1.367 1.181-2.37 2.06-3.01.889-.634 1.942-.902 3.159-.804 1.218.098 2.571.591 4.061 1.477 1.979 1.178 3.642 2.588 4.987 4.232a18.998 18.998 0 0 1 3.124 5.346 19.547 19.547 0 0 1 1.287 5.826l-4.894-2.912c-.036-1.145-.21-2.201-.524-3.167a7.798 7.798 0 0 0-1.455-2.648c-.646-.793-1.512-1.513-2.6-2.16-.815-.485-1.531-.732-2.145-.74-.615-.008-1.135.225-1.561.701-.425.475-.75 1.202-.975 2.179-.213.972-.332 2.192-.357 3.659l-.032 1.955c-.024 1.43.048 2.744.214 3.942.167 1.185.435 2.264.803 3.237.38.967.871 1.821 1.473 2.563a8.591 8.591 0 0 0 2.226 1.88c1.022.608 1.868.92 2.538.935.669.015 1.184-.247 1.545-.787.371-.533.598-1.337.682-2.411Zm17.975-3.182-6.839 19.064-5.203-3.096 9.282-22.382 3.312 1.97-.552 4.444Zm4.987 26.1-6.096-26.759-.443-5.036 3.343 1.989 8.416 32.911-5.22-3.105Zm-.123-10.461-.074 4.46-12.544-7.463.074-4.46 12.544 7.463Zm20.029 15.002a5.258 5.258 0 0 0-.173-1.445c-.113-.476-.335-.979-.667-1.509-.332-.542-.799-1.158-1.403-1.85-.603-.691-1.386-1.502-2.348-2.432a61.679 61.679 0 0 1-3.044-3.191 29.08 29.08 0 0 1-2.515-3.278 16.596 16.596 0 0 1-1.69-3.401 10.061 10.061 0 0 1-.568-3.5c.019-1.152.254-2.066.705-2.744a3.075 3.075 0 0 1 1.867-1.342c.794-.217 1.727-.192 2.799.075 1.083.273 2.266.792 3.549 1.555a18.243 18.243 0 0 1 4.565 3.828c1.293 1.51 2.288 3.118 2.984 4.823.707 1.711 1.048 3.389 1.02 5.034l-4.861-2.892a6.607 6.607 0 0 0-.405-2.388 7.187 7.187 0 0 0-1.281-2.238c-.57-.697-1.296-1.307-2.177-1.831-.848-.505-1.557-.774-2.128-.806-.57-.046-1.001.1-1.292.438-.291.325-.441.798-.452 1.418-.007.468.083.95.273 1.446.2.503.499 1.038.896 1.606.397.569.886 1.173 1.469 1.813.582.641 1.257 1.33 2.025 2.067a44.937 44.937 0 0 1 3.383 3.566c.98 1.158 1.796 2.289 2.448 3.392a14.618 14.618 0 0 1 1.461 3.303c.322 1.099.474 2.217.455 3.356-.02 1.202-.239 2.158-.657 2.867-.419.71-1.014 1.167-1.786 1.372-.772.205-1.688.165-2.749-.121-1.06-.286-2.243-.818-3.548-1.594a21.599 21.599 0 0 1-3.466-2.598 22.81 22.81 0 0 1-3.088-3.505 17.399 17.399 0 0 1-2.172-4.129 12.533 12.533 0 0 1-.764-4.537l4.909 2.921a7.834 7.834 0 0 0 .307 2.387 7.48 7.48 0 0 0 .938 2.014 8.85 8.85 0 0 0 1.488 1.69c.584.514 1.225.978 1.92 1.392.849.505 1.547.78 2.095.825.56.051.974-.092 1.243-.43.28-.332.425-.807.435-1.427Zm24.212 5.167-.073 4.44-12.398-7.375.074-4.441 12.397 7.376Zm-10.759-17.766-.458 27.632-4.893-2.912.458-27.631 4.893 2.911Zm14.437 8.588-.459 27.632-4.877-2.901.458-27.632 4.878 2.901Zm-75.957 17.926-6.101-3.63.032-3.929 5.122 3.048c.903.537 1.644.844 2.225.921.581.065 1.017-.078 1.309-.429.302-.357.459-.915.472-1.674.014-.86-.116-1.64-.389-2.34-.263-.693-.687-1.334-1.27-1.924-.572-.583-1.315-1.147-2.229-1.69l-3.393-2.019-.384 23.172-4.893-2.911.458-27.632 8.286 4.93a24.824 24.824 0 0 1 3.696 2.659c1.093.957 2.015 1.972 2.766 3.045a12.77 12.77 0 0 1 1.706 3.391c.387 1.176.57 2.409.548 3.699-.018 1.139-.259 2.056-.721 2.753-.451.703-1.154 1.076-2.11 1.121-.946.05-2.174-.342-3.687-1.178l-1.443.617Zm-.414 12-7.226-4.299 1.982-3.305 5.318 3.164c.859.511 1.563.77 2.112.777.549-.005.959-.209 1.229-.61.27-.402.412-.963.424-1.684a7.369 7.369 0 0 0-.324-2.32 5.827 5.827 0 0 0-1.087-2.026c-.506-.633-1.177-1.199-2.014-1.697l-4.715-2.805.098-3.89 5.872 3.494 1.1 2.207c1.447.835 2.606 1.824 3.476 2.968.882 1.138 1.516 2.314 1.902 3.527.397 1.22.586 2.387.568 3.501-.03 1.771-.386 3.066-1.069 3.886-.684.808-1.672 1.133-2.965.977-1.283-.15-2.843-.771-4.681-1.865Zm22.287-9.873-6.839 19.064-5.204-3.096 9.283-22.382 3.312 1.97-.552 4.444Zm4.987 26.1-6.096-26.759-.444-5.036 3.344 1.989 8.416 32.911-5.22-3.105Zm-.123-10.461-.074 4.46-12.544-7.463.074-4.46 12.544 7.463Zm21.17 13.726 4.878 2.901c-.129 1.802-.597 3.191-1.404 4.168-.796.983-1.896 1.465-3.302 1.446-1.394-.011-3.065-.596-5.011-1.755a17.582 17.582 0 0 1-4.08-3.346 20.788 20.788 0 0 1-3.055-4.501 22.878 22.878 0 0 1-1.872-5.33 25.277 25.277 0 0 1-.577-5.883l.031-1.916c.034-2.025.293-3.717.776-5.077.495-1.367 1.182-2.37 2.06-3.01.889-.634 1.942-.902 3.16-.804 1.217.098 2.571.591 4.06 1.477 1.98 1.178 3.642 2.588 4.987 4.232a18.974 18.974 0 0 1 3.124 5.346 19.54 19.54 0 0 1 1.287 5.826l-4.894-2.912c-.035-1.146-.21-2.201-.524-3.167a7.798 7.798 0 0 0-1.455-2.648c-.645-.793-1.512-1.513-2.599-2.16-.816-.485-1.531-.732-2.146-.74-.615-.008-1.135.225-1.56.701-.425.475-.75 1.202-.975 2.179-.214.972-.333 2.192-.358 3.659l-.032 1.955c-.024 1.43.048 2.743.215 3.941.167 1.186.434 2.265.803 3.238.379.967.87 1.821 1.473 2.563a8.59 8.59 0 0 0 2.225 1.88c1.022.608 1.868.919 2.538.935.67.015 1.185-.248 1.545-.787.371-.533.599-1.337.682-2.411Zm13.291-10.741-.458 27.632-4.894-2.911.458-27.632 4.894 2.911Zm14.224 8.463-9.638 8.045-5.545 3.563-.791-5.914 3.767-3.662 6.204-5.604 6.003 3.572Zm-6.021 24.322-6.786-16.935 3.68-1.376 8.897 21.756-5.791-3.445Z"/></g><path d="M853.055 868.534s6.392-32.383-28.386-30.38c0 0 .611 35.645 28.386 30.38ZM876.412 880.695s-10.574-21.014 21.243-27.91c0 0 3.383 30.286-21.243 27.91Z" fill="#EC715D"/><path d="M885.248 817s17.013 36.577-15.415 42.914c-.047 0-22.84-26.466 15.415-42.914Z" fill="#E65473"/><path d="M867.577 897.235h1.081c-.094-.792-.141-1.584-.235-2.329-.47-6.617-.329-13.28.235-19.896.564-6.617 1.551-13.186 2.82-19.71.658-3.261 1.363-6.523 2.209-9.738.799-3.215 1.692-6.43 2.678-9.645-2.443 6.197-4.323 12.674-5.78 19.15-.752 3.262-1.363 6.524-1.927 9.832-.517 3.308-.893 6.616-1.222 9.971a119 119 0 0 0-.423 10.018c0 3.355.141 6.663.376 10.157.047.839.094 1.445.188 2.19ZM841.495 851.154l1.645 2.19c.564.699 1.034 1.491 1.598 2.236.517.746 1.08 1.491 1.55 2.283l1.457 2.33c.47.792.987 1.538 1.41 2.376l1.316 2.423c.423.792.893 1.584 1.269 2.423.799 1.631 1.645 3.262 2.397 4.939l2.209 5.032.564 1.258.47 1.305.986 2.563c1.41 3.401 2.444 6.896 3.619 10.344l.423 1.304.376 1.305.752 2.656.188.699h1.504l-1.222-3.728-.376-1.351-.423-1.305c-1.128-3.494-2.209-7.035-3.572-10.437l-.987-2.562-.517-1.305-.563-1.258-2.256-5.032c-.799-1.631-1.692-3.309-2.538-4.939-.423-.839-.893-1.631-1.363-2.423l-1.41-2.377c-.47-.792-.94-1.584-1.457-2.329l-1.551-2.284c-.517-.792-1.081-1.491-1.644-2.236-.564-.746-1.081-1.491-1.692-2.19l-1.786-2.097-1.927-2.003c-1.316-1.305-2.679-2.563-4.183-3.588 1.457 1.165 2.679 2.516 3.901 3.867l1.833 1.911ZM872.372 898.773l.188-1.398.329-1.584.611-3.215.799-3.169c1.08-4.193 2.49-8.34 4.37-12.254.94-1.957 1.974-3.914 3.149-5.731 1.128-1.864 2.444-3.634 3.995-5.172-1.739 1.398-3.149 3.122-4.465 4.846-.658.885-1.269 1.817-1.88 2.749-.611.932-1.081 1.91-1.645 2.889-2.068 3.914-3.524 8.107-4.699 12.394l-.799 3.215-.705 3.168-.329 1.724-.282 1.584h1.363v-.046Z" fill="#E02D7B"/><path d="M751.083 242.26c65.083 24.488 102.481-17.893 151.005.176 17.173 6.42 154.062 45.973 169.382-19.452 1.56 7.095 1.89 13.877.68 19.799-14.18 66.853-152.432 26.786-169.696 20.311-48.524-18.07-85.922 24.312-151.005-.177-34.021-12.767-41.74-33.983-36.732-52.568 3.822 12.217 14.671 23.748 36.366 31.911Z" fill="#D1D1D1"/><path d="M750.52 176.273c32.797-8.905.173-69.173 76.012-80.629 75.839-11.456 85.171 98.786 146.912 74.483 51.196-20.161 90.406 20.325 98.066 54.703-15.3 65.218-151.917 25.772-169.137 19.391-48.453-18.012-85.798 24.235-150.786-.176-21.592-8.155-32.497-19.631-36.366-31.718 4.557-17.014 19.583-31.773 35.299-36.054Z" fill="#FEFEFE"/><defs><linearGradient id="b" x1="908.851" y1="764.072" x2="1156.09" y2="698.669" gradientUnits="userSpaceOnUse"><stop stop-color="#E02D7B"/><stop offset=".319" stop-color="#E6506F"/><stop offset=".771" stop-color="#EE7C5F"/><stop offset="1" stop-color="#F18D59"/></linearGradient><linearGradient id="c" x1="878.615" y1="800.963" x2="1222.29" y2="677.302" gradientUnits="userSpaceOnUse"><stop stop-color="#E02D7B"/><stop offset=".319" stop-color="#E6506F"/><stop offset=".771" stop-color="#EE7C5F"/><stop offset="1" stop-color="#F18D59"/></linearGradient><linearGradient id="d" x1="824.436" y1="827.354" x2="1034.82" y2="743.843" gradientUnits="userSpaceOnUse"><stop stop-color="#E02D7B"/><stop offset=".319" stop-color="#E6506F"/><stop offset=".771" stop-color="#EE7C5F"/><stop offset="1" stop-color="#F18D59"/></linearGradient><linearGradient id="f" x1="316.201" y1="458.56" x2="575.42" y2="456.433" gradientUnits="userSpaceOnUse"><stop stop-color="#E02D7B"/><stop offset=".21" stop-color="#E02F78"/><stop offset=".39" stop-color="#E2376D"/><stop offset=".559" stop-color="#E5435B"/><stop offset=".721" stop-color="#E85443"/><stop offset=".877" stop-color="#ED6A23"/><stop offset="1" stop-color="#F17F04"/></linearGradient><linearGradient id="g" x1="535.925" y1="441.108" x2="313.691" y2="546.435" gradientUnits="userSpaceOnUse"><stop stop-color="#E02D7B"/><stop offset=".21" stop-color="#E02F78"/><stop offset=".39" stop-color="#E2376D"/><stop offset=".559" stop-color="#E5435B"/><stop offset=".721" stop-color="#E85443"/><stop offset=".877" stop-color="#ED6A23"/><stop offset="1" stop-color="#F17F04"/></linearGradient><linearGradient id="h" x1="346.068" y1="550.332" x2="498.686" y2="415.378" gradientUnits="userSpaceOnUse"><stop stop-color="#7AA9F2"/><stop offset=".203" stop-color="#90BBF6"/><stop offset=".52" stop-color="#ACD3FB"/><stop offset=".797" stop-color="#BEE2FE"/><stop offset="1" stop-color="#C4E7FF"/></linearGradient><linearGradient id="i" x1="346.068" y1="550.332" x2="498.686" y2="415.378" gradientUnits="userSpaceOnUse"><stop offset="0" stop-color="#B8B8B8"/><stop offset=".174" stop-color="#CACACA"/><stop offset=".503" stop-color="#E6E6E6"/><stop offset=".789" stop-color="#F8F8F8"/><stop offset="1" stop-color="#FEFEFE"/></linearGradient><linearGradient id="j" x1="472.305" y1="450.337" x2="404.522" y2="459.513" gradientUnits="userSpaceOnUse"><stop offset="0" stop-color="#231F20"/><stop offset=".398" stop-color="#2C292A"/><stop offset="1" stop-color="#404041"/></linearGradient><linearGradient id="k" x1="408.071" y1="444.356" x2="467.788" y2="447.824" gradientUnits="userSpaceOnUse"><stop offset="0" stop-color="#231F20"/><stop offset=".398" stop-color="#2C292A"/><stop offset="1" stop-color="#404041"/></linearGradient><linearGradient id="l" x1="403.319" y1="430.243" x2="434.42" y2="465.753" gradientUnits="userSpaceOnUse"><stop offset="0" stop-color="#231F20"/><stop offset=".398" stop-color="#2C292A"/><stop offset="1" stop-color="#404041"/></linearGradient><linearGradient id="m" x1="414.069" y1="447.182" x2="423.078" y2="447.146" gradientUnits="userSpaceOnUse"><stop offset="0" stop-color="#231F20"/><stop offset=".398" stop-color="#2C292A"/><stop offset="1" stop-color="#404041"/></linearGradient><linearGradient id="n" x1="326.759" y1="469.293" x2="526.054" y2="467.658" gradientUnits="userSpaceOnUse"><stop stop-color="#992053"/><stop offset=".178" stop-color="#B02753"/><stop offset=".544" stop-color="#DB3354"/><stop offset=".83" stop-color="#F53A54"/><stop offset="1" stop-color="#FF3D54"/></linearGradient><linearGradient id="o" x1="354.18" y1="538.471" x2="519.867" y2="391.96" gradientUnits="userSpaceOnUse"><stop stop-color="#fff"/><stop offset=".045" stop-color="#fff" stop-opacity=".955"/><stop offset="1" stop-color="#fff" stop-opacity="0"/></linearGradient><linearGradient id="p" x1="470" y1="763.5" x2="178" y2="571.5" gradientUnits="userSpaceOnUse"><stop stop-color="#FEFEFE"/><stop offset="1" stop-color="#FEFEFE" stop-opacity="0"/></linearGradient><linearGradient id="q" x1="674.828" y1="288.717" x2="531.362" y2="288.717" gradientUnits="userSpaceOnUse"><stop stop-color="#021290"/><stop offset="1" stop-color="#190158"/></linearGradient><linearGradient id="r" x1="650.787" y1="885.753" x2="842.514" y2="955.935" gradientUnits="userSpaceOnUse"><stop stop-color="#E02D7B"/><stop offset=".319" stop-color="#E6506F"/><stop offset=".771" stop-color="#EE7C5F"/><stop offset="1" stop-color="#F18D59"/></linearGradient><linearGradient id="s" x1="481.328" y1="760.224" x2="864.929" y2="927.364" gradientUnits="userSpaceOnUse"><stop stop-color="#E02D7B"/><stop offset=".319" stop-color="#E6506F"/><stop offset=".771" stop-color="#EE7C5F"/><stop offset="1" stop-color="#F18D59"/></linearGradient><linearGradient id="t" x1="411.402" y1="819.481" x2="1050.74" y2="981.141" gradientUnits="userSpaceOnUse"><stop stop-color="#E02D7B"/><stop offset=".319" stop-color="#E6506F"/><stop offset=".771" stop-color="#EE7C5F"/><stop offset="1" stop-color="#F18D59"/></linearGradient><clipPath id="a"><path fill="#fff" transform="translate(241 658)" d="M0 0h85v196H0z"/></clipPath><clipPath id="e"><path fill="#fff" transform="matrix(.99145 .13053 .0082 .99997 293 306)" d="M0 0h283.913v308.92H0z"/></clipPath><clipPath id="u"><path fill="#fff" transform="translate(703.768 382)" d="M0 0h164.598v351.165H0z"/></clipPath><clipPath id="v"><path fill="#fff" transform="translate(680.768 448)" d="M0 0h210v280.063H0z"/></clipPath></defs></svg>