<svg width="51" height="47" fill="none" xmlns="http://www.w3.org/2000/svg"><g clip-path="url(#a)" fill="#fff"><path d="M0 32.654c.53-2.027 1.064-4.054 1.592-6.08.723-2.773 1.437-5.547 2.166-8.317.205-.779.763-1.232 1.48-1.258.709-.025 1.333.349 1.537 1.032.103.347.11.769.02 1.12-1.137 4.472-2.3 8.936-3.459 13.402-.356 1.37.05 2.09 1.408 2.455 10.754 2.896 21.508 5.792 32.264 8.685 1.146.308 1.917-.147 2.206-1.3.348-1.39.682-2.784 1.028-4.173.24-.969 1.046-1.522 1.91-1.323.924.212 1.421 1.07 1.18 2.082a198.007 198.007 0 0 1-1.08 4.366c-.716 2.715-3.267 4.199-5.97 3.473a33244.327 33244.327 0 0 1-32.55-8.762C1.76 37.524.536 36.24.09 34.226c-.013-.058-.06-.11-.09-.167L0 32.654Z"/><path d="M29.764 34.182c-5.36 0-10.722-.035-16.081.016-2.34.022-3.92-1.078-4.933-3.071-.26-.513-.248-1.2-.249-1.806-.015-8.144-.025-16.289-.002-24.434.008-2.85 2.11-4.884 4.957-4.885 10.87-.003 21.741-.004 32.611 0 2.858 0 4.927 2.081 4.93 4.96.005 8.077.004 16.155 0 24.232-.002 2.92-2.036 4.977-4.951 4.983-5.428.014-10.856.005-16.282.005ZM11.677 26.44l.213.155c.086-.16.141-.354.264-.478 2.13-2.154 4.262-4.308 6.407-6.446 1.538-1.531 3.745-1.548 5.315-.056a51.494 51.494 0 0 1 1.551 1.556c.33.34.64.7.982 1.078.93-1.12 1.767-2.132 2.606-3.145 1.732-2.09 3.466-4.178 5.193-6.271 1.04-1.259 2.355-1.743 3.946-1.41.967.201 1.606.883 2.218 1.603 2.36 2.78 4.73 5.551 7.09 8.33.09.106.142.246.212.37l.137-.118V5.136c0-1.334-.59-1.93-1.903-1.932H13.591c-1.321 0-1.912.594-1.912 1.927v20.83c-.002.162-.002.32-.002.48Zm.538 4.1c.45.438.93.438 1.417.438 10.674-.002 21.346 0 32.02 0 .166 0 .332.002.498-.002 1.005-.025 1.645-.665 1.658-1.669.008-.617-.042-1.24.014-1.852.053-.57-.171-.966-.523-1.377-3.143-3.666-6.271-7.344-9.402-11.02-.605-.71-.794-.71-1.383.001-2.867 3.463-5.732 6.927-8.603 10.388-.783.944-1.755.988-2.617.126-1.164-1.166-2.323-2.338-3.486-3.506-.504-.505-.621-.504-1.132.009-2.313 2.324-4.623 4.65-6.938 6.974-.49.492-.994.974-1.523 1.49Z"/><path d="M19.114 14.945c-2.338-.004-4.244-1.916-4.246-4.259-.002-2.356 1.937-4.288 4.289-4.274 2.326.014 4.237 1.959 4.22 4.291-.02 2.353-1.924 4.248-4.263 4.242Zm.014-3.208a1.054 1.054 0 0 0 1.055-1.036 1.072 1.072 0 0 0-1.067-1.082 1.074 1.074 0 0 0-1.056 1.044 1.06 1.06 0 0 0 1.068 1.074Z"/></g><defs><clipPath id="a"><path fill="#fff" d="M0 0h51v47H0z"/></clipPath></defs></svg>