<svg width="206" height="38" fill="none" xmlns="http://www.w3.org/2000/svg"><path d="M.642 6.65c2.638 1.142 11.542 4.95 14.473 5.622 1.96.45 6.069.426 8.046.05 3.002-.57 11.911-4.503 14.23-5.54l.037-.016.074-.033C36.312 6.275 32.558 4.81 22.65.82 20.188-.169 17.89-.35 15.137.758 5.494 4.637 1.797 6.104.53 6.601l.07.03.042.02ZM18.553 36.872c-.04-2.583-.243-13.012-1.046-16.074-.464-1.768-2.397-5.031-3.71-6.302C11.636 12.409 2.548 8.298.134 7.225c-.048-.02-.092-.041-.135-.06.26 1.576.397 2.718 2.677 13.761 1.018 4.936 1.103 5.49 3.662 7.323 8.513 6.103 11.325 8.16 12.218 8.824 0-.052-.002-.109-.004-.172a.085.085 0 0 0 0-.029ZM37.754 7.443l-.012.007c-2.183.999-10.797 4.994-13.037 6.913-1.469 1.258-3.622 4.637-4.24 6.468-1.014 3.005-1.109 13.494-1.117 16.056v.209c1.29-.91 5.718-4.07 12.312-9.157 2.316-1.785 2.496-2.85 3.238-6.128 1.395-6.172 2.658-12.674 2.996-14.434-.045.024-.087.043-.14.066ZM59.447 13.052h3.267c.21 0 .383.171.383.383v14.099c0 .21-.17.383-.383.383h-2.913a.38.38 0 0 1-.302-.149l-5.585-7.242a.382.382 0 0 0-.685.234v6.776c0 .21-.171.383-.383.383h-3.268a.383.383 0 0 1-.383-.383v-14.1c0-.211.171-.384.383-.384h2.934c.118 0 .23.056.303.15l5.565 7.238c.223.29.685.133.685-.232v-6.773c0-.21.171-.383.382-.383ZM79.793 14.944c1.605 1.543 2.407 3.39 2.407 5.539 0 2.151-.804 3.995-2.407 5.542-1.607 1.545-3.564 2.318-5.869 2.318-2.305 0-4.26-.771-5.868-2.318-1.605-1.545-2.408-3.39-2.408-5.542 0-2.149.804-3.996 2.408-5.54 1.607-1.544 3.563-2.317 5.868-2.317 2.305.002 4.26.773 5.869 2.318Zm-8.82 2.507c-.793.806-1.192 1.817-1.192 3.032 0 1.217.398 2.23 1.192 3.04.797.808 1.781 1.21 2.956 1.21 1.174 0 2.16-.404 2.95-1.21.792-.808 1.188-1.823 1.188-3.04 0-1.215-.396-2.226-1.187-3.032-.792-.804-1.776-1.206-2.951-1.206s-2.16.403-2.956 1.206ZM87.627 27.662l-5.034-14.099a.383.383 0 0 1 .36-.511h3.53c.167 0 .314.11.365.267l2.745 8.753c.112.358.619.358.73 0l2.734-8.753c.05-.16.197-.269.365-.269h3.529c.264 0 .45.263.36.512L92.279 27.66a.381.381 0 0 1-.361.254h-3.93a.373.373 0 0 1-.36-.252ZM106.018 24.735h-4.333a.382.382 0 0 0-.363.263l-.881 2.658a.384.384 0 0 1-.363.263h-3.524a.382.382 0 0 1-.358-.518l5.338-14.099a.384.384 0 0 1 .358-.247h3.931c.158 0 .301.098.358.247l5.338 14.099a.382.382 0 0 1-.358.518h-3.525a.381.381 0 0 1-.363-.262l-.891-2.66a.384.384 0 0 0-.364-.262Zm-1.305-3.184a.382.382 0 0 0 .364-.498l-1.219-3.855-1.222 3.853a.383.383 0 0 0 .364.499h1.713v.001ZM120.86 27.919h-6.729a.383.383 0 0 1-.383-.384V13.437c0-.21.171-.383.383-.383h6.305c1.528 0 2.756.39 3.69 1.17.931.782 1.399 1.701 1.399 2.757 0 .41-.066.796-.197 1.167-.13.37-.29.665-.475.885a5.425 5.425 0 0 1-.554.576c-.184.162-.345.28-.483.348l-.197.103c.069.027.165.067.285.12.121.053.334.172.638.363.304.189.573.405.809.648.236.242.447.573.638.995.189.421.285.88.285 1.378 0 1.162-.505 2.176-1.518 3.047-1.015.87-2.314 1.308-3.896 1.308Zm-3.079-3.565c0 .21.171.383.383.383h2.375c.47 0 .853-.143 1.149-.425.296-.285.447-.638.447-1.063 0-.425-.149-.78-.447-1.063-.296-.285-.679-.425-1.149-.425h-2.375a.384.384 0 0 0-.383.383v2.21Zm2.229-8.107h-1.846a.384.384 0 0 0-.383.383v1.774c0 .211.171.384.383.384h1.846c.421 0 .758-.116 1.005-.349.25-.23.376-.54.376-.921 0-.383-.126-.692-.376-.921-.248-.235-.584-.35-1.005-.35ZM128.816 27.535V13.437c0-.21.171-.383.383-.383h6.627c1.569 0 2.86.487 3.88 1.466 1.019.978 1.529 2.189 1.529 3.633 0 .593-.089 1.149-.264 1.664-.176.514-.388.93-.638 1.252a6.05 6.05 0 0 1-.746.818c-.25.225-.456.38-.622.46l-.28.158 2.753 4.837a.383.383 0 0 1-.333.572h-3.356a.38.38 0 0 1-.335-.2l-2.332-4.275a.383.383 0 0 0-.336-.2h-1.515a.384.384 0 0 0-.383.383v3.91c0 .21-.171.383-.383.383h-3.268a.377.377 0 0 1-.381-.38Zm7.941-8.325a1.41 1.41 0 0 0 .446-1.062c0-.424-.149-.777-.446-1.056-.297-.282-.68-.421-1.15-.421h-2.374a.383.383 0 0 0-.383.383v2.2c0 .211.171.384.383.384h2.374c.47 0 .852-.143 1.15-.428ZM157.654 14.945c1.608 1.546 2.409 3.393 2.409 5.541 0 2.15-.801 3.996-2.409 5.54-1.606 1.546-3.562 2.317-5.867 2.317s-4.26-.773-5.867-2.316c-1.608-1.545-2.409-3.391-2.409-5.54 0-2.15.801-3.996 2.409-5.542 1.605-1.545 3.562-2.316 5.867-2.316 2.305-.001 4.261.771 5.867 2.316Zm-8.816 2.51c-.795.804-1.192 1.814-1.192 3.03 0 1.218.397 2.229 1.192 3.037.794.81 1.779 1.215 2.954 1.215 1.174 0 2.157-.406 2.949-1.215.791-.808 1.187-1.819 1.187-3.037 0-1.216-.394-2.226-1.187-3.03-.792-.806-1.775-1.208-2.949-1.208-1.175 0-2.16.402-2.954 1.208ZM167.91 22.664l-1.168 1.322a.382.382 0 0 0-.097.254v3.297c0 .21-.171.383-.383.383h-3.267a.383.383 0 0 1-.383-.383v-14.1c0-.21.171-.383.383-.383h3.267c.211 0 .383.17.383.383v4.31c0 .357.443.52.675.249l4.095-4.806a.382.382 0 0 1 .291-.135h3.663c.328 0 .504.385.29.633l-4.573 5.305a.381.381 0 0 0-.03.461l5.183 7.874a.383.383 0 0 1-.32.594h-3.76a.384.384 0 0 1-.32-.173l-3.323-5.039a.38.38 0 0 0-.606-.046ZM183.522 24.518h6.874c.21 0 .383.171.383.383v2.634c0 .211-.171.384-.383.384H179.49a.384.384 0 0 1-.383-.384V13.437c0-.21.171-.383.383-.383h10.7c.211 0 .383.17.383.383v2.634c0 .21-.171.383-.383.383h-6.668a.384.384 0 0 0-.383.383v1.566c0 .21.171.383.383.383h4.966c.211 0 .383.17.383.383v2.427c0 .21-.171.383-.383.383h-4.966c-.21 0-.383.17-.383.383v1.775c0 .21.171.381.383.381ZM193.328 27.535V13.437c0-.21.17-.383.383-.383h6.626c1.569 0 2.861.487 3.88 1.466 1.02.978 1.53 2.189 1.53 3.633 0 .593-.089 1.149-.265 1.664-.175.514-.388.93-.638 1.252a6.113 6.113 0 0 1-.745.818c-.25.225-.456.38-.623.46l-.28.158 2.753 4.837a.382.382 0 0 1-.332.572h-3.356a.382.382 0 0 1-.336-.2l-2.332-4.275a.38.38 0 0 0-.335-.2h-1.515a.383.383 0 0 0-.383.383v3.91c0 .21-.171.383-.384.383h-3.267a.377.377 0 0 1-.381-.38Zm7.94-8.325a1.41 1.41 0 0 0 .447-1.062c0-.424-.149-.777-.447-1.056-.296-.282-.679-.421-1.149-.421h-2.375a.384.384 0 0 0-.383.383v2.2c0 .211.171.384.383.384h2.375c.47 0 .853-.143 1.149-.428Z" fill="#fff"/></svg>