<svg width="226" height="41" fill="none" xmlns="http://www.w3.org/2000/svg"><path d="M.705 7.296c2.893 1.252 12.662 5.43 15.877 6.167 2.15.493 6.659.467 8.828.056 3.293-.626 13.067-4.941 15.612-6.079l.04-.017c.03-.012.054-.025.081-.037C39.837 6.884 35.72 5.278 24.85.901c-2.7-1.087-5.22-1.285-8.242-.07C6.027 5.088 1.97 6.698.582 7.243c.026.01.05.023.076.033.017.009.031.014.047.021ZM20.355 40.452c-.044-2.834-.268-14.276-1.148-17.635-.51-1.94-2.63-5.52-4.071-6.914-2.37-2.289-12.34-6.8-14.988-7.977C.096 7.904.047 7.881 0 7.86c.285 1.73.436 2.982 2.937 15.098 1.117 5.415 1.21 6.023 4.017 8.034 9.34 6.695 12.425 8.953 13.404 9.68l-.003-.188a.097.097 0 0 0 0-.032ZM41.419 8.166c-.005.001-.01.005-.014.007-2.395 1.096-11.845 5.48-14.302 7.584-1.612 1.38-3.974 5.087-4.653 7.096-1.111 3.297-1.215 14.804-1.224 17.614v.23c1.415-.999 6.273-4.465 13.507-10.046 2.54-1.959 2.738-3.126 3.553-6.723 1.53-6.771 2.916-13.904 3.286-15.835-.049.026-.096.047-.153.073ZM65.219 14.32h3.584a.42.42 0 0 1 .42.42v15.468a.42.42 0 0 1-.42.42h-3.195a.418.418 0 0 1-.332-.163l-6.127-7.946a.42.42 0 0 0-.752.257v7.433a.42.42 0 0 1-.42.42h-3.585a.42.42 0 0 1-.42-.42V14.74a.42.42 0 0 1 .42-.42h3.218c.13 0 .254.06.333.163l6.105 7.942a.42.42 0 0 0 .752-.255v-7.43a.42.42 0 0 1 .419-.42ZM87.539 16.395c1.76 1.693 2.641 3.72 2.641 6.077 0 2.36-.882 4.383-2.641 6.08-1.763 1.695-3.91 2.543-6.438 2.543-2.529 0-4.674-.846-6.438-2.543-1.761-1.695-2.642-3.72-2.642-6.08 0-2.357.882-4.384 2.642-6.077 1.762-1.695 3.909-2.543 6.438-2.543 2.528.002 4.673.848 6.438 2.543Zm-9.676 2.75c-.87.885-1.307 1.995-1.307 3.327 0 1.335.436 2.447 1.307 3.334.874.888 1.954 1.329 3.243 1.329s2.369-.443 3.237-1.329c.869-.885 1.303-1.999 1.303-3.334 0-1.332-.434-2.442-1.303-3.326-.868-.882-1.948-1.323-3.237-1.323-1.289 0-2.369.442-3.243 1.323ZM96.135 30.348l-5.523-15.467a.42.42 0 0 1 .396-.561h3.87c.185 0 .347.12.402.293l3.012 9.603c.123.392.679.392.8 0l3-9.603a.42.42 0 0 1 .401-.295h3.871a.42.42 0 0 1 .396.56l-5.523 15.468a.418.418 0 0 1-.396.278h-4.312a.41.41 0 0 1-.394-.276ZM116.31 27.137h-4.753a.419.419 0 0 0-.398.288l-.967 2.916a.42.42 0 0 1-.398.289h-3.866a.42.42 0 0 1-.393-.568l5.857-15.468a.42.42 0 0 1 .392-.27h4.313a.42.42 0 0 1 .392.27l5.856 15.468a.419.419 0 0 1-.392.568h-3.868a.418.418 0 0 1-.397-.287l-.978-2.918a.42.42 0 0 0-.4-.288Zm-1.431-3.493a.42.42 0 0 0 .4-.547l-1.338-4.229-1.34 4.228a.42.42 0 0 0 .399.547h1.879v.001ZM132.594 30.63h-7.383a.42.42 0 0 1-.42-.42V14.741a.42.42 0 0 1 .42-.42h6.918c1.676 0 3.023.427 4.048 1.283 1.021.858 1.535 1.867 1.535 3.025 0 .45-.073.874-.217 1.28-.142.407-.318.73-.521.971a5.916 5.916 0 0 1-.608.632 2.592 2.592 0 0 1-.53.382l-.215.113c.075.03.181.073.313.132.132.058.366.188.7.398.333.206.628.445.887.71.259.266.49.629.7 1.093.207.462.313.965.313 1.51 0 1.275-.554 2.389-1.666 3.344-1.113.955-2.539 1.434-4.274 1.434Zm-3.378-3.912c0 .231.188.42.42.42h2.605c.516 0 .937-.156 1.261-.465.325-.313.49-.7.49-1.167 0-.465-.163-.855-.49-1.165-.324-.313-.745-.468-1.261-.468h-2.605a.42.42 0 0 0-.42.42v2.425Zm2.445-8.894h-2.025a.42.42 0 0 0-.42.42v1.948c0 .23.188.42.42.42h2.025c.462 0 .832-.127 1.103-.382.275-.254.412-.593.412-1.011 0-.42-.137-.759-.412-1.01-.272-.258-.641-.385-1.103-.385ZM141.323 30.21V14.741a.42.42 0 0 1 .42-.42h7.27c1.721 0 3.139.534 4.257 1.608 1.119 1.073 1.678 2.401 1.678 3.985 0 .652-.097 1.261-.29 1.826-.193.564-.426 1.02-.7 1.373a6.65 6.65 0 0 1-.818.898c-.275.247-.5.417-.683.506l-.307.172 3.02 5.307a.42.42 0 0 1-.365.627h-3.682a.42.42 0 0 1-.368-.219l-2.558-4.69a.418.418 0 0 0-.368-.22h-1.662a.42.42 0 0 0-.42.42v4.29c0 .232-.188.42-.421.42h-3.584a.414.414 0 0 1-.419-.416Zm8.712-9.134c.324-.31.489-.7.489-1.166 0-.465-.163-.853-.489-1.158-.325-.31-.746-.462-1.261-.462h-2.605a.421.421 0 0 0-.421.42v2.414c0 .231.188.42.421.42h2.605c.515 0 .934-.156 1.261-.468ZM172.959 16.397c1.765 1.695 2.644 3.721 2.644 6.078 0 2.359-.879 4.384-2.644 6.079-1.761 1.695-3.907 2.54-6.436 2.54s-4.674-.847-6.437-2.54c-1.764-1.695-2.643-3.72-2.643-6.079 0-2.357.879-4.383 2.643-6.078 1.762-1.695 3.908-2.541 6.437-2.541 2.529-.002 4.675.845 6.436 2.54Zm-9.672 2.752c-.872.883-1.307 1.99-1.307 3.325 0 1.337.435 2.445 1.307 3.332.872.888 1.952 1.332 3.241 1.332 1.289 0 2.367-.444 3.236-1.332.868-.887 1.302-1.995 1.302-3.332 0-1.334-.432-2.442-1.302-3.325-.869-.884-1.947-1.325-3.236-1.325-1.289 0-2.369.441-3.241 1.325ZM184.212 24.865l-1.281 1.45a.419.419 0 0 0-.106.278v3.618c0 .23-.188.42-.421.42h-3.584a.421.421 0 0 1-.421-.42V14.74c0-.23.188-.42.421-.42h3.584c.231 0 .421.188.421.42v4.73c0 .39.486.57.74.272l4.492-5.272a.42.42 0 0 1 .32-.148h4.019a.42.42 0 0 1 .318.695l-5.018 5.82a.421.421 0 0 0-.033.505l5.686 8.639a.42.42 0 0 1-.35.65h-4.125a.421.421 0 0 1-.351-.189l-3.645-5.527a.418.418 0 0 0-.666-.05ZM201.34 26.899h7.541c.231 0 .421.187.421.42v2.89c0 .231-.188.42-.421.42h-11.964a.421.421 0 0 1-.421-.42V14.742c0-.231.188-.42.421-.42h11.738c.231 0 .421.187.421.42v2.89c0 .23-.188.42-.421.42h-7.315a.42.42 0 0 0-.42.42v1.718c0 .23.188.42.42.42h5.448c.231 0 .421.188.421.42v2.663c0 .23-.188.42-.421.42h-5.448a.42.42 0 0 0-.42.42v1.947a.42.42 0 0 0 .42.419ZM212.097 30.21V14.741c0-.231.188-.42.421-.42h7.27c1.721 0 3.138.534 4.256 1.608 1.119 1.073 1.678 2.401 1.678 3.985 0 .652-.097 1.261-.29 1.826-.193.564-.425 1.02-.7 1.373a6.65 6.65 0 0 1-.818.898c-.274.247-.5.417-.682.506l-.308.172 3.02 5.307a.42.42 0 0 1-.364.627h-3.682a.418.418 0 0 1-.368-.219l-2.559-4.69a.418.418 0 0 0-.368-.22h-1.662a.42.42 0 0 0-.42.42v4.29a.42.42 0 0 1-.42.42h-3.585a.414.414 0 0 1-.419-.416Zm8.712-9.134c.325-.31.49-.7.49-1.166 0-.465-.164-.853-.49-1.158-.325-.31-.745-.462-1.261-.462h-2.605a.42.42 0 0 0-.42.42v2.414c0 .231.187.42.42.42h2.605c.516 0 .936-.156 1.261-.468Z" fill="#EB242A"/></svg>