<svg width="66" height="44" fill="none" xmlns="http://www.w3.org/2000/svg"><path opacity=".5" d="M43.503 44c-4.45 0-8.8-1.289-12.5-3.706a22.114 22.114 0 0 1-8.289-9.872 21.547 21.547 0 0 1-1.282-12.71 21.853 21.853 0 0 1 6.156-11.266A22.663 22.663 0 0 1 39.108.423a22.975 22.975 0 0 1 13 1.25 22.4 22.4 0 0 1 10.098 8.102A21.654 21.654 0 0 1 66 21.997V22c-.006 5.832-2.378 11.424-6.596 15.548-4.217 4.125-9.936 6.445-15.9 6.452Z" fill="#fff"/><path d="M22.5 44c-4.45 0-8.8-1.29-12.5-3.708a22.114 22.114 0 0 1-8.287-9.873 21.546 21.546 0 0 1-1.28-12.711A21.853 21.853 0 0 1 6.59 6.444 22.663 22.663 0 0 1 18.11.423a22.976 22.976 0 0 1 13 1.252 22.4 22.4 0 0 1 10.098 8.102A21.654 21.654 0 0 1 45 22c-.006 5.833-2.379 11.425-6.597 15.55-4.218 4.124-9.938 6.444-15.903 6.45Z" fill="#fff"/></svg>