<svg width="29" height="29" fill="none" xmlns="http://www.w3.org/2000/svg"><g clip-path="url(#a)"><path fill-rule="evenodd" clip-rule="evenodd" d="M16.735 18.202c-.312-.398-.82-.975-1.253-1.03-.264-.033-.568.189-.867.398-.059.03-.51.3-.564.317-.29.084-.906.108-1.279-.236a16.748 16.748 0 0 1-1.385-1.51 16.332 16.332 0 0 1-1.131-1.707c-.245-.444-.069-1.03.083-1.29.028-.046.363-.395.438-.476l.012.013c.277-.236.569-.476.601-.736.054-.433-.383-1.063-.695-1.461-.312-.4-.796-1.099-1.455-1a1.795 1.795 0 0 0-.673.251l-.005-.007-.035.028-.019.01.002.002c-.12.095-.466.356-.506.392-.427.384-1.071 1.29-.573 2.92.369 1.21 1.156 2.633 2.229 4.071l-.006.005c.052.07.106.132.161.2l.154.204.007-.005c1.139 1.387 2.332 2.496 3.422 3.15 1.466.88 2.509.484 2.99.169.046-.03.39-.301.507-.39l.003.002c.004-.004.007-.01.013-.015l.031-.024-.004-.006c.177-.173.318-.357.416-.59.256-.612-.307-1.25-.619-1.65Z" fill="#EB242A"/></g><path d="M14.767 13.607a.447.447 0 0 1 .385-.442l.06-.004h5.122l-1.764-1.766a.447.447 0 0 1-.044-.582l.042-.05a.445.445 0 0 1 .58-.043l.05.043 2.526 2.526.037.042.035.055.013.021.022.054.018.072.005.042v.035c0 .03-.002.06-.009.09l-.013.048a.438.438 0 0 1-.087.153l-2.546 2.555a.445.445 0 0 1-.674-.581l.044-.05 1.763-1.77h-5.12a.445.445 0 0 1-.445-.448Z" fill="#EB242A" stroke="#EB242A" stroke-width=".443"/><circle cx="14.471" cy="14.471" r="13.881" stroke="#EB242A" stroke-width="1.181"/><defs><clipPath id="a"><path fill="#fff" transform="translate(6.497 9.45)" d="M0 0h12.404v11.813H0z"/></clipPath></defs></svg>