<svg width="68" height="68" fill="none" xmlns="http://www.w3.org/2000/svg"><path clip-rule="evenodd" d="M34 66c17.673 0 32-14.327 32-32C66 16.327 51.673 2 34 2 16.327 2 2 16.327 2 34c0 17.673 14.327 32 32 32Z" stroke="#001A49" stroke-width="4"/><path d="m40.5 28-8.656 10L28 34.234" stroke="#001A49" stroke-width="3.5" stroke-linecap="round" stroke-linejoin="round"/><path d="M50.43 23.029c-6.986-1.253-9.875-2.181-16.18-5.029-6.305 2.848-9.194 3.776-16.18 5.029-1.265 20.06 14.975 26.986 16.18 27.471 1.205-.485 17.445-7.412 16.18-27.471Z" stroke="#001A49" stroke-width="3.5" stroke-linecap="round" stroke-linejoin="round"/></svg>