<svg width="59" height="46" fill="none" xmlns="http://www.w3.org/2000/svg"><path d="M48.154 20.464s.778 3.82.953 4.62h-3.42l1.639-4.466c-.02.031.337-.935.542-1.53l.286 1.376ZM59 4.93v36.142c0 1.307-.519 2.56-1.44 3.485A4.913 4.913 0 0 1 54.082 46H4.917a4.913 4.913 0 0 1-3.476-1.444A4.937 4.937 0 0 1 0 41.07V4.929c0-1.307.519-2.56 1.44-3.485A4.913 4.913 0 0 1 4.918 0h49.166c1.304 0 2.554.52 3.476 1.444A4.937 4.937 0 0 1 59 4.93ZM15.622 30.721l6.473-15.934h-4.353L13.717 25.67l-.44-2.206-1.435-7.332c-.236-1.016-.962-1.304-1.864-1.345H3.352l-.072.318a16.17 16.17 0 0 1 4.322 1.755l3.667 13.861h4.353Zm9.67.02 2.58-15.954h-4.116l-2.57 15.955h4.106Zm14.329-5.215c.02-1.816-1.086-3.202-3.451-4.343-1.444-.73-2.325-1.221-2.325-1.972.02-.678.748-1.377 2.365-1.377 1.053-.03 2.1.178 3.063.607l.368.173.564-3.45a10.216 10.216 0 0 0-3.687-.678c-4.067 0-6.925 2.177-6.945 5.276-.032 2.29 2.048 3.563 3.606 4.332 1.587.78 2.131 1.294 2.131 1.981-.02 1.069-1.29 1.56-2.468 1.56-1.64 0-2.52-.257-3.863-.852l-.542-.257-.573 3.584c.962.442 2.745.831 4.589.852 4.321.009 7.138-2.137 7.17-5.441l-.002.005Zm14.462 5.216-3.319-15.955h-3.186c-.982 0-1.73.288-2.151 1.325L39.31 30.744h4.322s.706-1.972.86-2.392h5.287c.123.566.492 2.392.492 2.392l3.81-.002Z" fill="#fff"/></svg>