<svg width="49" height="49" fill="none" xmlns="http://www.w3.org/2000/svg"><g clip-path="url(#a)" fill="#001A49"><path d="M0 10.202c.262-.767.416-1.595.808-2.289C1.97 5.853 3.79 4.8 6.15 4.784c3.54-.023 7.08-.01 10.62-.005.826.001 1.379.5 1.385 1.21.007.717-.576 1.23-1.414 1.231-3.476.003-6.953-.003-10.43.003-1.894.004-3.271 1.033-3.743 2.81-.096.366-.122.76-.122 1.14-.006 10.469-.007 20.935-.002 31.403 0 1.961.975 3.333 2.716 3.818.393.11.816.152 1.226.152 11.227.008 22.453.008 33.68.005 2.386 0 3.937-1.572 3.94-3.985.005-3.479 0-6.957.002-10.436 0-.7.365-1.213.93-1.341a1.21 1.21 0 0 1 1.484 1.157c.026.977.011 1.955.01 2.933-.004 2.774.033 5.547-.026 8.32-.065 3.066-2.658 5.643-5.711 5.775-.223.01-.447.019-.67.019-11.21 0-22.42-.004-33.631.005-2.456.002-4.363-.99-5.585-3.134-.394-.688-.547-1.518-.81-2.283V10.2Z"/><path d="M42.107 0c1.361.027 2.596.472 3.628 1.421a37.02 37.02 0 0 1 1.635 1.62c2.133 2.22 2.176 5.436.11 7.718-.129.143-.265.278-.4.415-7.036 7.073-14.073 14.144-21.103 21.223a2.98 2.98 0 0 1-1.377.804c-3.18.87-6.352 1.763-9.528 2.651-.422.118-.836.205-1.248-.035-.51-.297-.72-.832-.54-1.495.748-2.748 1.578-5.475 2.233-8.245.393-1.657 1.195-2.927 2.397-4.12C24.632 15.29 31.288 8.56 37.956 1.841 39.103.688 40.441.025 42.107 0Zm-5.174 6.549L19.24 24.333l5.549 5.579 17.694-17.787c-1.842-1.85-3.735-3.75-5.551-5.576Zm1.694-2.006 5.824 5.863c.348-.37.722-.76 1.09-1.157.151-.163.302-.33.434-.509.76-1.02.785-2.602-.033-3.577a16.093 16.093 0 0 0-2.054-2.066c-.941-.776-2.08-.904-3.125-.297-.793.462-1.447 1.168-2.136 1.743ZM17.914 26.682l-1.737 6.312c2.146-.6 4.21-1.175 6.274-1.751l-4.537-4.561Z"/></g><defs><clipPath id="a"><path fill="#fff" d="M0 0h49v49H0z"/></clipPath></defs></svg>